<?xml version="1.0" encoding="utf-8"?>
<!-- Generator: Adobe Illustrator 17.0.0, SVG Export Plug-In . SVG Version: 6.00 Build 0)  -->
<!DOCTYPE svg PUBLIC "-//W3C//DTD SVG 1.1//EN" "http://www.w3.org/Graphics/SVG/1.1/DTD/svg11.dtd">
<svg version="1.1" id="Layer_1" xmlns="http://www.w3.org/2000/svg" xmlns:xlink="http://www.w3.org/1999/xlink" x="0px" y="0px"
	 width="700px" height="400px" viewBox="0 0 700 400" enable-background="new 0 0 700 400" xml:space="preserve">
<line fill="none" stroke="#281F0F" stroke-width="9.7244" x1="128.444" y1="21.919" x2="166.537" y2="60.273"/>
<line fill="none" stroke="#281F0F" stroke-width="9.7244" x1="285.73" y1="228.584" x2="245.235" y2="249.711"/>
<line fill="none" stroke="#281F0F" stroke-width="9.7244" x1="213.395" y1="96.127" x2="231.829" y2="137.366"/>
<line fill="none" stroke="#281F0F" stroke-width="9.7244" x1="136.924" y1="170.849" x2="105.43" y2="204.721"/>
<g>
	<defs>
		<rect id="SVGID_37_" x="19.349" y="-6.771" width="676.179" height="412.771"/>
	</defs>
	<clipPath id="SVGID_2_">
		<use xlink:href="#SVGID_37_"  overflow="visible"/>
	</clipPath>
	
		<line clip-path="url(#SVGID_2_)" fill="none" stroke="#281F0F" stroke-width="9.7244" x1="19.392" y1="77.558" x2="80.027" y2="78.048"/>
</g>
<line fill="none" stroke="#281F0F" stroke-width="9.7244" x1="222.651" y1="370.898" x2="283.285" y2="371.388"/>
<g>
	<defs>
		<rect id="SVGID_39_" x="19.349" y="-6.771" width="676.179" height="412.771"/>
	</defs>
	<clipPath id="SVGID_4_">
		<use xlink:href="#SVGID_39_"  overflow="visible"/>
	</clipPath>
	<path clip-path="url(#SVGID_4_)" fill="#D71D22" d="M26.508,32.809c3.953,0,7.158-3.205,7.158-7.158
		c0-3.953-3.205-7.158-7.158-7.158s-7.158,3.205-7.158,7.158C19.35,29.604,22.554,32.809,26.508,32.809"/>
	<path clip-path="url(#SVGID_4_)" fill="#D71D22" d="M177.145,319.422c3.953,0,7.158-3.205,7.158-7.158
		c0-3.953-3.205-7.158-7.158-7.158c-3.953,0-7.158,3.205-7.158,7.158C169.987,316.218,173.192,319.422,177.145,319.422"/>
	<path clip-path="url(#SVGID_4_)" fill="#D71D22" d="M633.008,24.677c3.953,0,7.158-3.205,7.158-7.158
		c0-3.953-3.205-7.158-7.158-7.158c-3.953,0-7.158,3.205-7.158,7.158C625.85,21.472,629.055,24.677,633.008,24.677"/>
	<path clip-path="url(#SVGID_4_)" fill="#D71D22" d="M562.186,240.174c3.953,0,7.158-3.205,7.158-7.158
		c0-3.953-3.205-7.158-7.158-7.158c-3.953,0-7.158,3.205-7.158,7.158C555.028,236.969,558.232,240.174,562.186,240.174"/>
	<path clip-path="url(#SVGID_4_)" fill="#D71D22" d="M294.176,108.459c3.953,0,7.158-3.205,7.158-7.158
		c0-3.953-3.205-7.158-7.158-7.158c-3.953,0-7.158,3.205-7.158,7.158C287.017,105.254,290.222,108.459,294.176,108.459"/>
	
		<line clip-path="url(#SVGID_4_)" fill="none" stroke="#281F0F" stroke-width="9.7244" x1="387.471" y1="7.901" x2="398.33" y2="37.136"/>
</g>
<line fill="none" stroke="#281F0F" stroke-width="9.7244" x1="578.005" y1="165.721" x2="617.264" y2="175.744"/>
<line fill="none" stroke="#281F0F" stroke-width="9.7244" x1="430.027" y1="270.733" x2="473.76" y2="308.588"/>
<g>
	<defs>
		<rect id="SVGID_41_" x="19.349" y="-6.771" width="676.179" height="412.771"/>
	</defs>
	<clipPath id="SVGID_6_">
		<use xlink:href="#SVGID_41_"  overflow="visible"/>
	</clipPath>
	
		<line clip-path="url(#SVGID_6_)" fill="none" stroke="#281F0F" stroke-width="9.7244" x1="386.3" y1="346.448" x2="380.92" y2="403.388"/>
</g>
<line fill="none" stroke="#281F0F" stroke-width="9.7244" x1="587.882" y1="350.809" x2="625.203" y2="355.821"/>
<line fill="none" stroke="#281F0F" stroke-width="9.7244" x1="610.414" y1="68.207" x2="564.055" y2="48.906"/>
<g>
	<defs>
		<rect id="SVGID_43_" x="19.349" y="-6.771" width="676.179" height="412.771"/>
	</defs>
	<clipPath id="SVGID_8_">
		<use xlink:href="#SVGID_43_"  overflow="visible"/>
	</clipPath>
	
		<line clip-path="url(#SVGID_8_)" fill="none" stroke="#281F0F" stroke-width="9.7244" x1="101.403" y1="271.897" x2="19.815" y2="279.753"/>
	
		<line clip-path="url(#SVGID_8_)" fill="none" stroke="#281F0F" stroke-width="9.7244" x1="284.753" y1="20.374" x2="267.814" y2="11.46"/>
</g>
<line fill="none" stroke="#281F0F" stroke-width="9.7244" x1="77.802" y1="376.415" x2="60.863" y2="367.501"/>
<line fill="none" stroke="#281F0F" stroke-width="9.7244" x1="410.35" y1="239.147" x2="427.104" y2="161.576"/>
<g>
	<defs>
		<rect id="SVGID_45_" x="19.349" y="-6.771" width="676.179" height="412.771"/>
	</defs>
	<clipPath id="SVGID_10_">
		<use xlink:href="#SVGID_45_"  overflow="visible"/>
	</clipPath>
	
		<path clip-path="url(#SVGID_10_)" fill="none" stroke="#D71D22" stroke-width="1.2518" stroke-linejoin="bevel" stroke-miterlimit="20.899" d="
		M619.348,290.993c2.741,4.893-1.658,9.957-9.635,14.424c-7.977,4.467-14.593,5.572-17.333,0.679l-2.062-3.683l23.17-12.976
		c1.9-1.063,4.414-1.028,5.03,0.072L619.348,290.993z M563.254,333.385l5.142,9.181l1.006,0.015l4.178-2.34l0.514-0.865
		l-0.986-1.759c-0.523-0.934,0.088-2.071,1.076-3.203l15.741-17.553l-0.739-3.992c5.407,5.422,14.263,6.312,24.899,0.356
		c12.724-7.126,16.072-16.295,11.33-24.762l-9.022-16.109l-1.005-0.014l-4.179,2.34l-0.513,0.865l0.985,1.759
		c0.616,1.1-0.667,3.263-2.566,4.326l-47.48,26.589c-1.899,1.064-4.414,1.028-5.03-0.072l-0.985-1.759l-1.006-0.014l-4.178,2.339
		l-0.514,0.865l8.806,15.724l1.006,0.014l4.178-2.34l0.514-0.865l-0.986-1.759c-0.615-1.1,0.667-3.263,2.567-4.326l18.612-10.423
		l1.047,1.869l-22.052,24.772L563.254,333.385z M572.731,276.801c0.615,1.1-0.667,3.263-2.567,4.326l-1.14,0.637l-0.513,0.865
		l1.354,2.42l1.006,0.014l15.573-8.722l0.514-0.865l-1.355-2.42l-1.006-0.014l-1.14,0.638c-1.803,1.01-4.414,1.027-5.029-0.072
		l-3.418-6.103l19.941-11.167c1.899-1.063,4.414-1.028,5.03,0.072l2.155,3.848c1.662,2.969-0.802,6.588-6.063,10.113l-0.514,0.865
		l1.293,2.309l13.124-3.739l2.848-1.596l0.642-1.081l-15.61-27.874l-1.006-0.015l-4.178,2.34l-0.514,0.865l0.986,1.759
		c0.615,1.1-0.667,3.263-2.567,4.326l-47.479,26.589c-1.9,1.064-4.414,1.028-5.03-0.072l-0.985-1.759l-1.006-0.014l-4.179,2.34
		l-0.513,0.865l16.041,28.644l1.006,0.015l18.124-9.067l0.575-0.756l-1.354-2.419l-1.006-0.014
		c-6.293,3.018-13.741,5.311-17.096-0.682l-2.771-4.948c-0.616-1.1,0.667-3.262,2.566-4.326l21.841-12.231L572.731,276.801z
		 M581.355,223.15c2.494,4.454-0.958,9.204-7.89,13.085c-6.933,3.883-12.596,4.237-15.09-0.216l-2.617-4.673l19.182-10.743
		c1.804-1.01,4.163-1.031,4.937-0.093L581.355,223.15z M550.06,234.537l3.141,5.608c2.955,5.278-1.696,10.338-9.007,14.433
		c-7.312,4.095-14.435,5.629-17.392,0.351l-1.909-3.409c-0.616-1.1,0.667-3.263,2.566-4.326L550.06,234.537z M511.375,240.747
		l10.776,19.243c3.88,6.927,13.786,9.468,26.13,2.555c8.451-4.733,12.301-11.222,11.863-16.683
		c4.129,1.804,10.481,1.787,17.793-2.308c10.16-5.691,14.288-14.358,9.546-22.824l-9.637-17.209l-1.006-0.014l-4.178,2.34
		l-0.514,0.865l0.986,1.759c0.615,1.099-0.667,3.262-2.567,4.326l-47.479,26.59c-1.9,1.063-4.414,1.028-5.03-0.072l-0.986-1.759
		l-1.006-0.015l-4.178,2.34L511.375,240.747z M547.409,171.89c0.667-0.59,1.27-1.072,1.935-1.445
		c1.044-0.585,2.115-0.679,2.607,0.201l0.616,1.1l1.006,0.014l4.178-2.339l0.514-0.865l-6.004-10.721l-1.006-0.015l-4.178,2.34
		l-0.514,0.865l0.616,1.1c0.492,0.88-0.178,1.688-1.222,2.273c-0.665,0.372-1.391,0.635-2.213,0.95l-52.395,19.593
		c-1.958,0.736-3.465,0.496-4.081-0.604l-0.677-1.209l-1.006-0.014l-4.178,2.34l-0.514,0.865l5.758,10.281l1.006,0.014l4.178-2.34
		l0.514-0.865l-0.924-1.65c-0.554-0.99,0.023-1.963,1.258-2.655c0.569-0.319,1.17-0.583,1.802-0.792l35.719-13.287l-35.86,33.082
		l-0.611,1.137l0.739,1.319l1.258,0.018l46.689-13.075l-29.676,23.408c-0.698,0.535-1.207,0.964-1.871,1.337
		c-1.044,0.585-2.05,0.57-2.697-0.584l-0.923-1.649l-1.006-0.015l-4.179,2.34l-0.513,0.865l7.974,14.239l1.006,0.014l4.178-2.339
		l0.514-0.865l-0.677-1.209c-0.492-0.88-0.577-1.699,1.617-3.795l44.082-34.437c0.698-0.536,1.301-1.018,1.966-1.39
		c1.045-0.585,2.084-0.734,2.577,0.146l0.615,1.099l1.006,0.015l4.178-2.34l0.514-0.865l-5.665-10.116l-1.006-0.014l-4.179,2.34
		l-0.513,0.865l0.615,1.1c0.493,0.88-0.177,1.689-1.222,2.274c-0.665,0.372-1.391,0.634-2.243,0.895l-40.569,11.309L547.409,171.89z
		 M503.702,153.541c0.615,1.1-0.667,3.263-2.567,4.326l-1.14,0.638l-0.513,0.865l1.354,2.42l1.006,0.014l15.573-8.721l0.514-0.865
		l-1.355-2.42l-1.005-0.014l-1.14,0.638c-1.804,1.01-4.415,1.027-5.03-0.072l-3.418-6.103l19.941-11.167
		c1.899-1.063,4.414-1.028,5.03,0.072l2.155,3.849c1.663,2.969-0.802,6.587-6.063,10.112l-0.514,0.865l1.293,2.309l13.124-3.739
		l2.848-1.595l0.642-1.082l-15.61-27.874l-1.006-0.015l-4.178,2.34l-0.514,0.865l0.986,1.759c0.616,1.1-0.667,3.263-2.567,4.326
		l-47.479,26.59c-1.899,1.063-4.414,1.027-5.03-0.072l-0.985-1.759l-1.006-0.014l-4.179,2.34l-0.513,0.865l16.041,28.644
		l1.006,0.015l18.125-9.067l0.575-0.756l-1.354-2.419l-1.006-0.014c-6.293,3.018-13.741,5.311-17.096-0.682l-2.771-4.948
		c-0.616-1.099,0.667-3.262,2.566-4.326l21.841-12.232L503.702,153.541z M506.668,118.298l0.924,1.65l1.257,0.018l12.571-7.401
		l0.765-0.861c1.419-3.034,2.002-7.116-0.614-11.789c-3.388-6.048-13.208-7.77-24.698-1.335c-9.022,5.052-12.81,11.652-14.168,20.14
		c-1.05,6.366-2.357,10.492-10.524,15.066c-5.792,3.244-12.473,4.457-14.597,0.664c-2.309-4.124,1.179-9.255,11.412-15.708
		l0.642-1.082l-1.232-2.199l-1.257-0.019l-14.206,7.378l-1.018,1.076c-1.874,4.227-2.378,9.564,0.393,14.513
		c4.218,7.532,15.312,7.963,27.277,1.262c10.54-5.903,13.826-12.509,15.115-20.454c1.32-7.889,2.185-11.912,8.832-15.635
		c5.698-3.19,10.976-2.897,12.639,0.072c2.217,3.959-0.601,8.282-8.87,13.563L506.668,118.298z M469.834,93.066
		c0.615,1.1-0.667,3.263-2.567,4.326l-1.14,0.638l-0.513,0.865l1.354,2.419l1.006,0.014l15.573-8.721l0.514-0.865l-1.355-2.419
		l-1.006-0.015l-1.14,0.638c-1.804,1.01-4.414,1.028-5.029-0.072l-3.418-6.102l19.941-11.168c1.899-1.063,4.414-1.027,5.03,0.072
		l2.155,3.848c1.662,2.969-0.802,6.588-6.063,10.112l-0.514,0.865l1.293,2.309l13.124-3.739l2.848-1.595l0.642-1.082l-15.61-27.874
		l-1.006-0.014l-4.178,2.339l-0.514,0.865l0.986,1.759c0.615,1.1-0.667,3.263-2.567,4.326l-47.479,26.59
		c-1.9,1.063-4.414,1.027-5.03-0.072l-0.986-1.759l-1.005-0.014l-4.179,2.34l-0.513,0.865l16.041,28.644l1.006,0.014l18.124-9.067
		l0.575-0.755l-1.354-2.42l-1.006-0.014c-6.293,3.019-13.741,5.311-17.097-0.681l-2.771-4.948c-0.616-1.1,0.667-3.263,2.566-4.326
		l21.841-12.232L469.834,93.066z M475.933,34.907c4.68,8.357-6.182,20.145-20.426,28.122c-14.244,7.977-29.971,11.079-34.651,2.722
		l-0.677-1.209c-0.616-1.1,0.667-3.263,2.566-4.326l47.48-26.59c1.899-1.063,4.414-1.027,5.029,0.072L475.933,34.907z
		 M473.133,16.542l-1.006-0.014l-4.178,2.34l-0.514,0.865l0.986,1.759c0.615,1.1-0.668,3.263-2.567,4.326l-47.479,26.59
		c-1.9,1.063-4.415,1.027-5.03-0.072l-0.986-1.76l-1.006-0.014l-4.178,2.34l-0.514,0.865c0,0,6.743,12.04,8.498,15.174
		c6.743,12.041,23.639,13.7,44.72,1.894c21.081-11.806,28.494-27.08,21.752-39.119C477.875,25.009,473.133,16.542,473.133,16.542z"
		/>
</g>
</svg>
