<?xml version="1.0" encoding="utf-8"?>
<!-- Generator: Adobe Illustrator 17.0.0, SVG Export Plug-In . SVG Version: 6.00 Build 0)  -->
<!DOCTYPE svg PUBLIC "-//W3C//DTD SVG 1.1//EN" "http://www.w3.org/Graphics/SVG/1.1/DTD/svg11.dtd">
<svg version="1.1" id="Layer_1" xmlns="http://www.w3.org/2000/svg" xmlns:xlink="http://www.w3.org/1999/xlink" x="0px" y="0px"
	 width="700px" height="400px" viewBox="0 0 700 400" enable-background="new 0 0 700 400" xml:space="preserve">
<polygon fill="none" stroke="#001E4F" stroke-width="1.2887" stroke-miterlimit="17.195" points="101.368,86.413 108.043,86.413 
	108.043,73.151 116.128,73.151 116.128,67.335 108.043,67.335 108.043,58.523 122.054,58.523 122.054,52.707 101.368,52.707 "/>
<polygon fill="none" stroke="#001E4F" stroke-width="1.2887" stroke-miterlimit="17.195" points="61.128,136.707 83.731,136.707 
	83.731,130.891 67.759,130.891 67.759,121.286 77.496,121.286 77.496,116.284 67.759,116.284 67.759,108.861 83.731,108.861 
	83.731,103.001 61.128,103.001 "/>
<g>
	<defs>
		<rect id="SVGID_51_" x="19.642" y="18.304" width="293.627" height="363.391"/>
	</defs>
	<clipPath id="SVGID_2_">
		<use xlink:href="#SVGID_51_"  overflow="visible"/>
	</clipPath>
	<path clip-path="url(#SVGID_2_)" fill="none" stroke="#001E4F" stroke-width="1.2887" stroke-miterlimit="17.195" d="
		M111.225,168.17c2.026,0,3.569,0.471,4.626,1.41c1.057,0.94,1.586,2.122,1.586,3.547c0,1.542-0.58,2.787-1.74,3.734
		c-1.161,0.948-3.114,1.421-5.86,1.421h-5.309V168.17H111.225z M111.423,154.864c1.792,0,3.106,0.367,3.943,1.102
		c0.837,0.735,1.256,1.696,1.256,2.886c0,1.205-0.36,2.108-1.08,2.71c-1.116,0.94-2.43,1.409-3.943,1.409h-7.072v-8.107H111.423z
		 M97.941,183.459h14.827c2.673,0,4.875-0.448,6.608-1.344c1.733-0.895,2.996-2.059,3.79-3.491c0.792-1.432,1.189-2.912,1.189-4.439
		c0-1.307-0.316-2.585-0.947-3.833c-0.632-1.248-1.52-2.299-2.666-3.151c-0.822-0.616-2.02-1.16-3.591-1.63
		c1.836-0.646,3.231-1.454,4.186-2.424c1.424-1.454,2.137-3.238,2.137-5.353c0-2.82-1.19-4.979-3.569-6.477
		c-1.66-1.042-4.193-1.564-7.6-1.564H97.941V183.459z"/>
	<path clip-path="url(#SVGID_2_)" fill="none" stroke="#001E4F" stroke-width="1.2887" stroke-miterlimit="17.195" d="
		M138.119,213.721c2.203,0,3.804,0.415,4.803,1.244c0.999,0.83,1.499,1.869,1.499,3.117c0,1.307-0.448,2.329-1.344,3.062
		c-1.366,1.101-3.018,1.652-4.957,1.652h-5.309v-9.076H138.119z M126.157,241.545h6.653v-13.548h6.069l5.652,13.548h6.569
		l-6.062-14.782c2.32-0.939,3.95-2.067,4.89-3.381c0.94-1.315,1.41-2.978,1.41-4.99c0-2.188-0.522-4.127-1.565-5.816
		s-2.5-2.901-4.373-3.635c-1.872-0.734-5.254-1.101-10.145-1.101h-9.098V241.545z"/>
	<path clip-path="url(#SVGID_2_)" fill="none" stroke="#001E4F" stroke-width="1.2887" stroke-miterlimit="17.195" d="
		M114.894,263.545h4.56l8.636-6.939h-7.182L114.894,263.545z M106.215,287.646c0,2.541,0.352,4.564,1.058,6.069
		c0.705,1.505,1.586,2.742,2.643,3.712c0.763,0.69,1.718,1.249,2.864,1.675c2.159,0.792,4.486,1.189,6.983,1.189
		c4.332,0,7.623-1.109,9.87-3.326c2.247-2.218,3.371-5.383,3.371-9.495v-21.545h-6.675v20.576c0,1.777-0.305,3.246-0.914,4.406
		c-0.61,1.16-1.421,1.998-2.435,2.511c-1.013,0.514-2.173,0.771-3.48,0.771c-2.042,0-3.657-0.639-4.847-1.917
		s-1.785-3.202-1.785-5.772v-20.576h-6.653V287.646z"/>
</g>
<path fill="none" stroke="#001E4F" stroke-width="1.2887" stroke-miterlimit="17.195" d="M164.931,334.978h-7.669l3.864-11.764
	L164.931,334.978z M146.674,347.8h6.521l2.551-7.908h10.774l2.558,7.908h6.521l-10.973-33.706h-7.033L146.674,347.8z"/>
<g>
	<defs>
		<rect id="SVGID_53_" x="19.642" y="18.304" width="293.627" height="363.391"/>
	</defs>
	<clipPath id="SVGID_4_">
		<use xlink:href="#SVGID_53_"  overflow="visible"/>
	</clipPath>
	<path clip-path="url(#SVGID_4_)" fill="none" stroke="#001E4F" stroke-width="1.2887" stroke-miterlimit="17.195" d="
		M231.03,319.976c2.203,0,3.804,0.415,4.802,1.244c0.999,0.83,1.499,1.869,1.499,3.117c0,1.307-0.448,2.329-1.344,3.062
		c-1.366,1.101-3.018,1.652-4.957,1.652h-5.309v-9.076H231.03z M219.068,347.8h6.653v-13.548h6.069l5.652,13.548h6.569
		l-6.062-14.782c2.32-0.939,3.95-2.067,4.89-3.381c0.94-1.315,1.41-2.978,1.41-4.99c0-2.188-0.522-4.127-1.565-5.816
		c-1.043-1.689-2.5-2.901-4.373-3.635c-1.872-0.734-5.254-1.101-10.145-1.101h-9.098V347.8z"/>
	
		<rect x="20.766" y="19.43" clip-path="url(#SVGID_4_)" fill="none" stroke="#FFE900" stroke-width="2.2491" width="261.386" height="361.143"/>
</g>
<g>
	<defs>
		
			<rect id="SVGID_55_" x="415.451" y="-5.53" transform="matrix(-0.8233 -0.5676 0.5676 -0.8233 810.5076 631.268)" width="176.133" height="390"/>
	</defs>
	<clipPath id="SVGID_6_">
		<use xlink:href="#SVGID_55_"  overflow="visible"/>
	</clipPath>
	<path clip-path="url(#SVGID_6_)" fill="none" stroke="#FFE900" stroke-width="4.3723" stroke-dasharray="15.4893,11.117" d="
		M515.21,167.843c1.564,6.848,5.237,13.114,10.545,17.827"/>
	<path clip-path="url(#SVGID_6_)" fill="none" stroke="#FFE900" stroke-width="4.3723" stroke-dasharray="15.4893,11.117" d="
		M555.756,193.36c6.85-1.563,13.115-5.235,17.829-10.544"/>
	<path clip-path="url(#SVGID_6_)" fill="none" stroke="#FFE900" stroke-width="4.3723" stroke-dasharray="15.4893,11.117" d="
		M581.275,152.814c-1.565-6.847-5.237-13.114-10.545-17.827"/>
	<path clip-path="url(#SVGID_6_)" fill="none" stroke="#FFE900" stroke-width="4.3723" stroke-dasharray="15.4893,11.117" d="
		M540.728,127.296c-6.848,1.564-13.112,5.237-17.827,10.546"/>
	<path clip-path="url(#SVGID_6_)" fill="none" stroke="#FFE900" stroke-width="4.3723" d="M519.57,142.284
		c-1.348,2.145-2.475,4.473-3.339,6.97c-0.863,2.496-1.416,5.025-1.682,7.542 M566.287,131.655
		c-2.144-1.347-4.474-2.473-6.969-3.336c-2.496-0.863-5.024-1.418-7.543-1.685 M576.915,178.373
		c1.347-2.144,2.473-4.474,3.335-6.971c0.864-2.495,1.419-5.023,1.686-7.541 M530.197,189.002c2.146,1.347,4.475,2.472,6.971,3.337
		c2.496,0.863,5.024,1.417,7.541,1.684"/>
	<path clip-path="url(#SVGID_6_)" fill="none" stroke="#001E4F" stroke-width="4.3723" stroke-dasharray="15.4893,11.117" d="
		M486.298,201.699c1.564,6.848,5.237,13.114,10.545,17.827"/>
	<path clip-path="url(#SVGID_6_)" fill="none" stroke="#001E4F" stroke-width="4.3723" stroke-dasharray="15.4893,11.117" d="
		M526.843,227.216c6.85-1.563,13.115-5.235,17.829-10.544"/>
	<path clip-path="url(#SVGID_6_)" fill="none" stroke="#001E4F" stroke-width="4.3723" stroke-dasharray="15.4893,11.117" d="
		M552.362,186.671c-1.565-6.847-5.237-13.114-10.545-17.827"/>
	<path clip-path="url(#SVGID_6_)" fill="none" stroke="#001E4F" stroke-width="4.3723" stroke-dasharray="15.4893,11.117" d="
		M511.816,161.152c-6.848,1.564-13.112,5.237-17.827,10.546"/>
	<path clip-path="url(#SVGID_6_)" fill="none" stroke="#001E4F" stroke-width="4.3723" d="M490.657,176.14
		c-1.348,2.145-2.475,4.473-3.339,6.97c-0.863,2.496-1.416,5.025-1.682,7.542 M537.374,165.512
		c-2.144-1.347-4.474-2.473-6.969-3.336c-2.496-0.863-5.024-1.418-7.543-1.685 M548.003,212.23c1.347-2.144,2.473-4.474,3.335-6.971
		c0.864-2.495,1.419-5.023,1.686-7.541 M501.284,222.858c2.146,1.347,4.475,2.472,6.971,3.337c2.496,0.863,5.024,1.417,7.541,1.684"
		/>
	<path clip-path="url(#SVGID_6_)" fill="none" stroke="#FFE900" stroke-width="4.3723" stroke-dasharray="15.4893,11.117" d="
		M438.418,202.511c1.564,6.848,5.237,13.114,10.545,17.827"/>
	<path clip-path="url(#SVGID_6_)" fill="none" stroke="#FFE900" stroke-width="4.3723" stroke-dasharray="15.4893,11.117" d="
		M478.963,228.029c6.85-1.563,13.115-5.235,17.829-10.544"/>
	<path clip-path="url(#SVGID_6_)" fill="none" stroke="#FFE900" stroke-width="4.3723" stroke-dasharray="15.4893,11.117" d="
		M504.482,187.483c-1.565-6.847-5.237-13.114-10.545-17.827"/>
	<path clip-path="url(#SVGID_6_)" fill="none" stroke="#FFE900" stroke-width="4.3723" stroke-dasharray="15.4893,11.117" d="
		M463.935,161.965c-6.848,1.564-13.112,5.237-17.827,10.546"/>
	<path clip-path="url(#SVGID_6_)" fill="none" stroke="#FFE900" stroke-width="4.3723" d="M442.777,176.952
		c-1.348,2.145-2.475,4.473-3.339,6.97c-0.863,2.496-1.416,5.025-1.682,7.542 M489.494,166.324
		c-2.144-1.347-4.474-2.473-6.969-3.336s-5.024-1.418-7.543-1.685 M500.123,213.042c1.347-2.144,2.473-4.474,3.335-6.971
		c0.864-2.495,1.419-5.023,1.686-7.541 M453.404,223.67c2.146,1.347,4.475,2.472,6.971,3.337c2.496,0.863,5.024,1.417,7.541,1.684"
		/>
	<path clip-path="url(#SVGID_6_)" fill="none" stroke="#001E4F" stroke-width="4.3723" d="M478.305,101.487
		c0,0,16.442-176.691,202.412-21.374"/>
	<path clip-path="url(#SVGID_6_)" fill="none" stroke="#FFE900" stroke-width="4.3723" d="M530.957,277.39
		c0,0-36.903,181.334-172.6,38.648"/>
</g>
</svg>
