<?xml version="1.0" encoding="utf-8"?>
<!-- Generator: Adobe Illustrator 17.0.0, SVG Export Plug-In . SVG Version: 6.00 Build 0)  -->
<!DOCTYPE svg PUBLIC "-//W3C//DTD SVG 1.1//EN" "http://www.w3.org/Graphics/SVG/1.1/DTD/svg11.dtd">
<svg version="1.1" id="Layer_1" xmlns="http://www.w3.org/2000/svg" xmlns:xlink="http://www.w3.org/1999/xlink" x="0px" y="0px"
	 width="700px" height="400px" viewBox="0 0 700 400" enable-background="new 0 0 700 400" xml:space="preserve">
<g>
	<defs>
		<rect id="SVGID_47_" x="79.47" y="-1.344" width="535.748" height="402.689"/>
	</defs>
	<clipPath id="SVGID_2_">
		<use xlink:href="#SVGID_47_"  overflow="visible"/>
	</clipPath>
	
		<line clip-path="url(#SVGID_2_)" fill="none" stroke="#B1DCE0" stroke-width="6" x1="308.58" y1="369.81" x2="82.369" y2="163.623"/>
	<circle clip-path="url(#SVGID_2_)" fill="none" stroke="#B1DCE0" stroke-width="5" cx="537.586" cy="58.296" r="29.737"/>
	<path clip-path="url(#SVGID_2_)" fill="none" stroke="#B1DCE0" stroke-width="6" d="M297.479,298.846
		c0,0,15.59-304.724-92.835-246.614"/>
	<path clip-path="url(#SVGID_2_)" fill="none" stroke="#B1DCE0" stroke-width="6" d="M389.223,259.941
		c0,0,273.149,70.866,188.662,5.669"/>
	<line clip-path="url(#SVGID_2_)" fill="none" stroke="#B1DCE0" x1="615.219" y1="23.502" x2="79.471" y2="23.502"/>
	<line clip-path="url(#SVGID_2_)" fill="none" stroke="#B1DCE0" x1="236.783" y1="-1.344" x2="236.783" y2="401.345"/>
	<line clip-path="url(#SVGID_2_)" fill="none" stroke="#B1DCE0" x1="615.219" y1="208.919" x2="79.471" y2="208.919"/>
	<line clip-path="url(#SVGID_2_)" fill="none" stroke="#B1DCE0" x1="422.2" y1="-1.344" x2="422.2" y2="401.344"/>
	<line clip-path="url(#SVGID_2_)" fill="none" stroke="#B1DCE0" x1="615.219" y1="116.211" x2="79.471" y2="116.211"/>
	<line clip-path="url(#SVGID_2_)" fill="none" stroke="#B1DCE0" x1="329.491" y1="-1.344" x2="329.491" y2="401.345"/>
	<line clip-path="url(#SVGID_2_)" fill="none" stroke="#B1DCE0" x1="167.251" y1="-1.344" x2="167.251" y2="401.345"/>
	<line clip-path="url(#SVGID_2_)" fill="none" stroke="#B1DCE0" x1="615.219" y1="301.628" x2="79.471" y2="301.628"/>
	<line clip-path="url(#SVGID_2_)" fill="none" stroke="#B1DCE0" x1="514.909" y1="-1.344" x2="514.909" y2="401.344"/>
	<line clip-path="url(#SVGID_2_)" fill="none" stroke="#B1DCE0" x1="615.219" y1="69.856" x2="79.471" y2="69.856"/>
	<line clip-path="url(#SVGID_2_)" fill="none" stroke="#B1DCE0" x1="283.137" y1="-1.344" x2="283.137" y2="401.345"/>
	<line clip-path="url(#SVGID_2_)" fill="none" stroke="#B1DCE0" x1="120.897" y1="-1.344" x2="120.897" y2="401.345"/>
	<line clip-path="url(#SVGID_2_)" fill="none" stroke="#B1DCE0" x1="97.72" y1="-1.344" x2="97.72" y2="401.345"/>
	<line clip-path="url(#SVGID_2_)" fill="none" stroke="#B1DCE0" x1="615.219" y1="255.274" x2="79.471" y2="255.274"/>
	<line clip-path="url(#SVGID_2_)" fill="none" stroke="#B1DCE0" x1="468.554" y1="-1.344" x2="468.554" y2="401.344"/>
	<line clip-path="url(#SVGID_2_)" fill="none" stroke="#B1DCE0" x1="615.219" y1="162.565" x2="79.471" y2="162.565"/>
	<line clip-path="url(#SVGID_2_)" fill="none" stroke="#B1DCE0" x1="375.845" y1="-1.344" x2="375.846" y2="401.344"/>
	<line clip-path="url(#SVGID_2_)" fill="none" stroke="#B1DCE0" x1="213.605" y1="-1.344" x2="213.605" y2="401.345"/>
	<line clip-path="url(#SVGID_2_)" fill="none" stroke="#B1DCE0" x1="615.219" y1="347.982" x2="79.471" y2="347.982"/>
	<line clip-path="url(#SVGID_2_)" fill="none" stroke="#B1DCE0" x1="561.263" y1="-1.344" x2="561.263" y2="401.344"/>
	<line clip-path="url(#SVGID_2_)" fill="none" stroke="#B1DCE0" x1="615.219" y1="46.679" x2="79.471" y2="46.679"/>
	<line clip-path="url(#SVGID_2_)" fill="none" stroke="#B1DCE0" x1="259.96" y1="-1.344" x2="259.96" y2="401.345"/>
	<line clip-path="url(#SVGID_2_)" fill="none" stroke="#B1DCE0" x1="615.219" y1="232.096" x2="79.471" y2="232.096"/>
	<line clip-path="url(#SVGID_2_)" fill="none" stroke="#B1DCE0" x1="445.377" y1="-1.344" x2="445.377" y2="401.344"/>
	<line clip-path="url(#SVGID_2_)" fill="none" stroke="#B1DCE0" x1="615.219" y1="139.388" x2="79.471" y2="139.388"/>
	<line clip-path="url(#SVGID_2_)" fill="none" stroke="#B1DCE0" x1="352.668" y1="-1.344" x2="352.668" y2="401.344"/>
	<line clip-path="url(#SVGID_2_)" fill="none" stroke="#B1DCE0" x1="190.428" y1="-1.344" x2="190.428" y2="401.345"/>
	<line clip-path="url(#SVGID_2_)" fill="none" stroke="#B1DCE0" x1="615.219" y1="324.805" x2="79.471" y2="324.805"/>
	<line clip-path="url(#SVGID_2_)" fill="none" stroke="#B1DCE0" x1="538.086" y1="-1.344" x2="538.086" y2="401.344"/>
	<line clip-path="url(#SVGID_2_)" fill="none" stroke="#B1DCE0" x1="615.219" y1="93.033" x2="79.471" y2="93.033"/>
	<line clip-path="url(#SVGID_2_)" fill="none" stroke="#B1DCE0" x1="306.314" y1="-1.344" x2="306.314" y2="401.345"/>
	<line clip-path="url(#SVGID_2_)" fill="none" stroke="#B1DCE0" x1="144.074" y1="-1.344" x2="144.074" y2="401.345"/>
	<line clip-path="url(#SVGID_2_)" fill="none" stroke="#B1DCE0" x1="615.219" y1="278.451" x2="79.471" y2="278.451"/>
	<line clip-path="url(#SVGID_2_)" fill="none" stroke="#B1DCE0" x1="491.731" y1="-1.344" x2="491.731" y2="401.344"/>
	<line clip-path="url(#SVGID_2_)" fill="none" stroke="#B1DCE0" x1="615.219" y1="185.742" x2="79.471" y2="185.742"/>
	<line clip-path="url(#SVGID_2_)" fill="none" stroke="#B1DCE0" x1="399.023" y1="-1.344" x2="399.023" y2="401.344"/>
	<line clip-path="url(#SVGID_2_)" fill="none" stroke="#B1DCE0" x1="615.219" y1="371.159" x2="79.471" y2="371.159"/>
	<line clip-path="url(#SVGID_2_)" fill="none" stroke="#B1DCE0" x1="584.44" y1="-1.344" x2="584.44" y2="401.344"/>
	<g clip-path="url(#SVGID_2_)">
		<defs>
			<rect id="SVGID_49_" x="347.344" y="132.334" width="324.558" height="75.581"/>
		</defs>
		<clipPath id="SVGID_4_">
			<use xlink:href="#SVGID_49_"  overflow="visible"/>
		</clipPath>
		<path clip-path="url(#SVGID_4_)" fill="none" stroke="#B1DCE0" stroke-width="2" d="M380.57,178.584
			c0,1.987-0.528,3.617-1.584,4.888c-0.806,0.949-1.872,1.423-3.196,1.423c-0.896,0-1.786-0.282-2.672-0.846
			c-0.887-0.564-2.019-1.714-3.398-3.451l-5.236,4.646c3.616,4.458,7.537,6.687,11.762,6.687c2.918,0,5.541-0.967,7.869-2.9
			c2.99-2.435,4.485-5.917,4.485-10.447v-28.547h-8.03V178.584z"/>
		<path clip-path="url(#SVGID_4_)" fill="none" stroke="#B1DCE0" stroke-width="2" d="M415.246,175.495h-9.349l4.71-14.341
			L415.246,175.495z M392.99,191.125h7.949l3.11-9.641h13.134l3.119,9.641h7.949l-13.377-41.089h-8.573L392.99,191.125z"/>
		<polygon clip-path="url(#SVGID_4_)" fill="none" stroke="#B1DCE0" stroke-width="2" points="433.985,191.125 442.068,191.125 
			442.068,162.47 459.39,191.125 467.393,191.125 467.393,150.036 459.39,150.036 459.39,177.617 442.529,150.036 433.985,150.036 
					"/>
		<path clip-path="url(#SVGID_4_)" fill="none" stroke="#B1DCE0" stroke-width="2" d="M487.32,147.136h5.559l10.527-8.459h-8.754
			L487.32,147.136z M476.739,176.516c0,3.098,0.43,5.564,1.289,7.399c0.859,1.835,1.934,3.343,3.223,4.525
			c0.93,0.842,2.094,1.522,3.491,2.041c2.632,0.967,5.469,1.45,8.513,1.45c5.281,0,9.292-1.352,12.031-4.055
			c2.74-2.703,4.109-6.562,4.109-11.575v-26.264h-8.137v25.083c0,2.166-0.372,3.957-1.114,5.371
			c-0.744,1.414-1.733,2.435-2.968,3.061c-1.235,0.627-2.65,0.94-4.243,0.94c-2.489,0-4.458-0.779-5.908-2.336
			c-1.451-1.558-2.176-3.903-2.176-7.036v-25.083h-8.11V176.516z"/>
		<path clip-path="url(#SVGID_4_)" fill="none" stroke="#B1DCE0" stroke-width="2" d="M537.197,175.495h-9.349l4.71-14.341
			L537.197,175.495z M514.941,191.125h7.949l3.11-9.641h13.134l3.119,9.641h7.949l-13.377-41.089h-8.573L514.941,191.125z"/>
		<path clip-path="url(#SVGID_4_)" fill="none" stroke="#B1DCE0" stroke-width="2" d="M570.707,157.207
			c2.685,0,4.636,0.506,5.854,1.517c1.217,1.012,1.826,2.278,1.826,3.8c0,1.594-0.546,2.838-1.638,3.733
			c-1.665,1.343-3.679,2.014-6.042,2.014h-6.473v-11.064H570.707z M556.124,191.125h8.11v-16.516h7.398l6.889,16.516h8.008
			l-7.39-18.02c2.829-1.146,4.816-2.52,5.962-4.122s1.719-3.63,1.719-6.083c0-2.668-0.636-5.031-1.907-7.09
			s-3.048-3.536-5.331-4.431c-2.282-0.895-6.405-1.343-12.367-1.343h-11.091V191.125z"/>
	</g>
</g>
</svg>
