<?xml version="1.0" encoding="utf-8"?>
<!-- Generator: Adobe Illustrator 17.0.0, SVG Export Plug-In . SVG Version: 6.00 Build 0)  -->
<!DOCTYPE svg PUBLIC "-//W3C//DTD SVG 1.1//EN" "http://www.w3.org/Graphics/SVG/1.1/DTD/svg11.dtd">
<svg version="1.1" id="Layer_1" xmlns="http://www.w3.org/2000/svg" xmlns:xlink="http://www.w3.org/1999/xlink" x="0px" y="0px"
	 width="700px" height="400px" viewBox="0 0 700 400" enable-background="new 0 0 700 400" xml:space="preserve">
<g>
	<defs>
		<rect id="SVGID_71_" x="61.929" y="30.628" width="576.141" height="350.704"/>
	</defs>
	<clipPath id="SVGID_2_">
		<use xlink:href="#SVGID_71_"  overflow="visible"/>
	</clipPath>
	<path clip-path="url(#SVGID_2_)" fill="none" stroke="#E04961" stroke-width="0.8221" stroke-miterlimit="8.038" d="
		M101.979,86.222c0,1.134-0.302,2.064-0.904,2.789c-0.46,0.542-1.068,0.812-1.823,0.812c-0.511,0-1.019-0.161-1.525-0.483
		c-0.506-0.322-1.153-0.978-1.939-1.97L92.8,90.022c2.063,2.544,4.301,3.816,6.713,3.816c1.665,0,3.162-0.552,4.49-1.655
		c1.706-1.389,2.559-3.376,2.559-5.962V69.931h-4.582V86.222z"/>
	<path clip-path="url(#SVGID_2_)" fill="none" stroke="#E04961" stroke-width="0.8221" stroke-miterlimit="8.038" d="
		M165.054,68.276h3.172l6.008-4.828h-4.996L165.054,68.276z M159.016,85.041c0,1.767,0.245,3.175,0.736,4.222
		c0.49,1.047,1.103,1.908,1.839,2.582c0.531,0.481,1.195,0.869,1.993,1.165c1.501,0.552,3.121,0.828,4.857,0.828
		c3.014,0,5.303-0.771,6.866-2.314c1.564-1.543,2.344-3.744,2.344-6.605V69.93h-4.643v14.314c0,1.236-0.212,2.257-0.636,3.065
		c-0.424,0.807-0.988,1.389-1.693,1.747c-0.705,0.358-1.512,0.537-2.421,0.537c-1.421,0-2.544-0.445-3.372-1.333
		c-0.828-0.889-1.241-2.227-1.241-4.015V69.93h-4.628V85.041z"/>
</g>
<polygon fill="none" stroke="#E04961" stroke-width="0.8221" stroke-miterlimit="8.038" points="159.632,157.405 164.244,157.405 
	164.244,141.053 174.13,157.405 178.696,157.405 178.696,133.958 174.13,133.958 174.13,149.697 164.508,133.958 159.632,133.958 
	"/>
<path fill="none" stroke="#E04961" stroke-width="0.8221" stroke-miterlimit="8.038" d="M165.096,196.329h3.172l6.008-4.828h-4.996
	L165.096,196.329z M166.047,221.431h4.598v-23.447h-4.598V221.431z"/>
<line fill="none" stroke="#0091D6" stroke-width="4.1103" x1="168.255" y1="252.893" x2="291.891" y2="252.893"/>
<g>
	<defs>
		<rect id="SVGID_73_" x="61.929" y="30.628" width="576.141" height="350.704"/>
	</defs>
	<clipPath id="SVGID_4_">
		<use xlink:href="#SVGID_73_"  overflow="visible"/>
	</clipPath>
	
		<line clip-path="url(#SVGID_4_)" fill="none" stroke="#0091D6" stroke-width="4.1103" x1="63.985" y1="32.682" x2="63.985" y2="254.123"/>
</g>
<line fill="none" stroke="#0091D6" stroke-width="8.2205" x1="489.082" y1="197.501" x2="489.082" y2="322.8"/>
<g>
	<defs>
		<rect id="SVGID_75_" x="61.929" y="30.628" width="576.141" height="350.704"/>
	</defs>
	<clipPath id="SVGID_6_">
		<use xlink:href="#SVGID_75_"  overflow="visible"/>
	</clipPath>
	
		<line clip-path="url(#SVGID_6_)" fill="none" stroke="#0091D6" stroke-width="8.2205" x1="633.961" y1="197.501" x2="633.961" y2="322.8"/>
	
		<line clip-path="url(#SVGID_6_)" fill="none" stroke="#0091D6" stroke-width="4.1103" x1="108.149" y1="32.685" x2="291.891" y2="32.685"/>
</g>
<line fill="none" stroke="#0091D6" stroke-width="4.1103" x1="290.658" y1="107.64" x2="290.658" y2="221.433"/>
<g>
	<defs>
		<rect id="SVGID_77_" x="61.929" y="30.628" width="576.141" height="350.704"/>
	</defs>
	<clipPath id="SVGID_8_">
		<use xlink:href="#SVGID_77_"  overflow="visible"/>
	</clipPath>
	<path clip-path="url(#SVGID_8_)" fill="none" stroke="#E04961" stroke-width="2.4662" d="M106.275,234.397
		c0,0,40.391,253.607,351.864,91.656"/>
	<circle clip-path="url(#SVGID_8_)" fill="none" stroke="#0091D6" stroke-width="2.4662" cx="449.039" cy="332.828" r="5.758"/>
	
		<line clip-path="url(#SVGID_8_)" fill="none" stroke="#E04961" stroke-width="8.6316" x1="489.082" y1="292.653" x2="633.96" y2="223.331"/>
	
		<line clip-path="url(#SVGID_8_)" fill="none" stroke="#E04961" stroke-width="8.6316" x1="489.082" y1="219.439" x2="633.96" y2="296.545"/>
</g>
</svg>
