<?xml version="1.0" encoding="utf-8"?>
<!-- Generator: Adobe Illustrator 17.0.0, SVG Export Plug-In . SVG Version: 6.00 Build 0)  -->
<!DOCTYPE svg PUBLIC "-//W3C//DTD SVG 1.1//EN" "http://www.w3.org/Graphics/SVG/1.1/DTD/svg11.dtd">
<svg version="1.1" id="Layer_1" xmlns="http://www.w3.org/2000/svg" xmlns:xlink="http://www.w3.org/1999/xlink" x="0px" y="0px"
	 width="700px" height="400px" viewBox="0 0 700 400" enable-background="new 0 0 700 400" xml:space="preserve">
<g>
	<defs>
		<rect id="SVGID_65_" x="21.898" y="2" width="651.119" height="394.062"/>
	</defs>
	<clipPath id="SVGID_2_">
		<use xlink:href="#SVGID_65_"  overflow="visible"/>
	</clipPath>
	<circle clip-path="url(#SVGID_2_)" fill="none" stroke="#D71D22" stroke-width="5.4028" cx="184.323" cy="164.424" r="112.662"/>
	<polygon clip-path="url(#SVGID_2_)" fill="none" stroke="#001E4F" stroke-width="1.2607" points="93.467,86.941 99.08,83.676 
		83.42,56.76 106.364,79.438 109.5,77.613 101.126,46.458 116.787,73.374 122.458,70.074 104.866,39.837 95.422,45.332 
		101.251,67.017 85.322,51.209 75.875,56.705 	"/>
	<path clip-path="url(#SVGID_2_)" fill="none" stroke="#001E4F" stroke-width="1.2607" d="M192.568,37.26l-7.776-1.705l6.533-11.067
		L192.568,37.26z M171.21,46.2l6.61,1.45l4.345-7.451l10.922,2.394l0.836,8.586l6.61,1.45l-3.632-36.609l-7.13-1.563L171.21,46.2z"
		/>
	<path clip-path="url(#SVGID_2_)" fill="none" stroke="#001E4F" stroke-width="1.2607" d="M270.049,41.039l3.786,2.84l11.491-0.382
		l-5.961-4.474L270.049,41.039z M248.706,71.845l5.487,4.117l20.995-27.98l-5.487-4.117L248.706,71.845z"/>
</g>
<line fill="none" stroke="#001E4F" stroke-width="5.4028" x1="220.696" y1="206.364" x2="48.265" y2="376.582"/>
<g>
	<defs>
		<rect id="SVGID_67_" x="21.898" y="2" width="651.119" height="394.062"/>
	</defs>
	<clipPath id="SVGID_4_">
		<use xlink:href="#SVGID_67_"  overflow="visible"/>
	</clipPath>
	<path clip-path="url(#SVGID_4_)" fill="none" stroke="#FFE900" stroke-width="5.4028" d="M162.179,213.698
		c0,0,530.925,64.662,265.462,132.307"/>
	<circle clip-path="url(#SVGID_4_)" fill="none" stroke="#001E4F" stroke-width="4.5024" cx="424.132" cy="351.484" r="6.307"/>
	
		<line clip-path="url(#SVGID_4_)" fill="none" stroke="#D71D22" stroke-width="5.4028" x1="576.879" y1="272.69" x2="576.879" y2="396.062"/>
</g>
<rect x="574.178" y="222.362" fill="#FFE900" width="24.675" height="24.671"/>
<g>
	<defs>
		<rect id="SVGID_69_" x="21.898" y="2" width="651.119" height="394.062"/>
	</defs>
	<clipPath id="SVGID_6_">
		<use xlink:href="#SVGID_69_"  overflow="visible"/>
	</clipPath>
	<path clip-path="url(#SVGID_6_)" fill="none" stroke="#001E4F" stroke-width="6.3033" d="M418.474,90.558
		c0,0,262.91-42.966,250.998,183.781"/>
</g>
</svg>
