<?xml version="1.0" encoding="utf-8"?>
<!-- Generator: Adobe Illustrator 17.0.0, SVG Export Plug-In . SVG Version: 6.00 Build 0)  -->
<!DOCTYPE svg PUBLIC "-//W3C//DTD SVG 1.1//EN" "http://www.w3.org/Graphics/SVG/1.1/DTD/svg11.dtd">
<svg version="1.1" id="Layer_1" xmlns="http://www.w3.org/2000/svg" xmlns:xlink="http://www.w3.org/1999/xlink" x="0px" y="0px"
	 width="700px" height="400px" viewBox="0 0 700 400" enable-background="new 0 0 700 400" xml:space="preserve">
<rect x="44.48" y="32.194" fill="none" stroke="#281F0F" stroke-width="3.2504" width="270.619" height="236.052"/>
<polygon fill="none" stroke="#281F0F" stroke-width="1.6252" stroke-linejoin="bevel" stroke-miterlimit="7.6" points="
	96.386,173.636 104.95,173.636 104.95,132.565 116.066,173.636 120.851,173.636 131.97,132.565 131.97,173.636 140.624,173.636 
	140.624,127.499 126.214,127.499 118.475,156.086 110.801,127.499 96.386,127.499 "/>
<path fill="none" stroke="#281F0F" stroke-width="1.6252" stroke-linejoin="bevel" stroke-miterlimit="7.6" d="M171.903,156.086
	h-10.498l5.289-16.103L171.903,156.086z M146.912,173.636h8.926l3.493-10.826h14.748l3.502,10.826h8.927l-15.021-46.138h-9.627
	L146.912,173.636z"/>
<g>
	<defs>
		<rect id="SVGID_57_" x="35.542" y="24.881" width="326.568" height="350.239"/>
	</defs>
	<clipPath id="SVGID_2_">
		<use xlink:href="#SVGID_57_"  overflow="visible"/>
	</clipPath>
	
		<path clip-path="url(#SVGID_2_)" fill="none" stroke="#281F0F" stroke-width="1.6252" stroke-linejoin="bevel" stroke-miterlimit="7.6" d="
		M209.529,135.55c3.016,0,5.207,0.568,6.574,1.704c1.367,1.136,2.051,2.558,2.051,4.267c0,1.789-0.614,3.186-1.84,4.191
		c-1.87,1.507-4.131,2.261-6.785,2.261h-7.267V135.55H209.529z M193.155,173.636h9.107v-18.545h8.307l7.735,18.545h8.992
		l-8.298-20.234c3.176-1.286,5.407-2.83,6.694-4.629c1.286-1.798,1.93-4.075,1.93-6.83c0-2.995-0.713-5.649-2.141-7.961
		c-1.428-2.311-3.423-3.97-5.986-4.976c-2.563-1.005-7.192-1.507-13.887-1.507h-12.454V173.636z"/>
	
		<path clip-path="url(#SVGID_2_)" fill="none" stroke="#281F0F" stroke-width="1.6252" stroke-linejoin="bevel" stroke-miterlimit="7.6" d="
		M233.654,163.896c1.065,2.05,2.121,3.649,3.166,4.794c1.608,1.79,3.574,3.212,5.895,4.267c2.322,1.056,5.061,1.584,8.218,1.584
		c3.337,0,6.292-0.634,8.866-1.9c2.573-1.267,4.512-3.076,5.82-5.428c1.307-2.352,1.96-4.694,1.96-7.026
		c0-2.212-0.508-4.363-1.523-6.454c-1.016-2.091-2.543-3.789-4.584-5.096c-2.04-1.307-5.041-2.452-9.001-3.438
		c-3.961-0.985-6.433-1.94-7.418-2.864c-1.005-0.925-1.507-2.031-1.507-3.317c0-1.608,0.608-2.981,1.824-4.117
		c1.216-1.135,2.839-1.703,4.87-1.703c1.648,0,3.146,0.422,4.493,1.266c1.347,0.844,2.664,2.182,3.951,4.011l7.599-3.106
		c-0.965-1.649-1.93-2.945-2.895-3.891c-1.488-1.427-3.302-2.598-5.443-3.513c-2.141-0.914-4.579-1.372-7.313-1.372
		c-4.806,0-8.584,1.272-11.339,3.814c-2.754,2.543-4.131,5.755-4.131,9.634c0,3.619,1.377,6.654,4.131,9.108
		c2.212,1.949,5.881,3.598,11.007,4.945c3.759,1.006,6.182,2.051,7.268,3.137c1.065,1.086,1.598,2.342,1.598,3.769
		c0,1.628-0.674,3.042-2.021,4.237c-1.347,1.197-3.227,1.794-5.639,1.794c-2.01,0-3.754-0.462-5.232-1.387
		c-1.477-0.924-2.981-2.563-4.508-4.915L233.654,163.896z"/>
	<path clip-path="url(#SVGID_2_)" fill="none" stroke="#0091D6" stroke-width="3.2504" d="M44.458,373.608
		c0,0,269.881-106.849,220.601-285.189"/>
</g>
<line fill="none" stroke="#0091D6" stroke-width="3.2504" x1="102.24" y1="50.319" x2="114.525" y2="115.585"/>
<line fill="none" stroke="#0091D6" stroke-width="3.2504" x1="130.54" y1="185.794" x2="142.816" y2="259.735"/>
<g>
	<defs>
		<rect id="SVGID_59_" x="443.876" y="32.194" width="169.121" height="294.654"/>
	</defs>
	<clipPath id="SVGID_4_">
		<use xlink:href="#SVGID_59_"  overflow="visible"/>
	</clipPath>
	<path clip-path="url(#SVGID_4_)" fill="none" stroke="#281F0F" stroke-width="2.003" d="M532.105,109.396
		c63.997,13.22,79.555-10.273,79.847-29.166"/>
	<path clip-path="url(#SVGID_4_)" fill="none" stroke="#281F0F" stroke-width="2.003" d="M612.024,70.944
		c0,0-17.382-71.389-69.527-17.818"/>
	<path clip-path="url(#SVGID_4_)" fill="none" stroke="#281F0F" stroke-width="2.003" d="M539.808,56.752
		c0,0-45.306,36.582-12.126,51.703"/>
</g>
<rect x="443.876" y="259.735" fill="#0091D6" width="17.033" height="112.293"/>
</svg>
