<?xml version="1.0" encoding="utf-8"?>
<!-- Generator: Adobe Illustrator 17.0.0, SVG Export Plug-In . SVG Version: 6.00 Build 0)  -->
<!DOCTYPE svg PUBLIC "-//W3C//DTD SVG 1.1//EN" "http://www.w3.org/Graphics/SVG/1.1/DTD/svg11.dtd">
<svg version="1.1" id="Layer_1" xmlns="http://www.w3.org/2000/svg" xmlns:xlink="http://www.w3.org/1999/xlink" x="0px" y="0px"
	 width="700px" height="400px" viewBox="0 0 700 400" enable-background="new 0 0 700 400" xml:space="preserve">
<line fill="none" stroke="#FFE900" stroke-width="3.5736" x1="324.591" y1="367.986" x2="245.235" y2="288.63"/>
<polygon fill="none" stroke="#0091D6" stroke-width="2.1337" stroke-linejoin="round" stroke-miterlimit="9.401" points="
	103.341,220.191 113.063,220.191 113.063,185.728 133.895,220.191 143.521,220.191 143.521,170.774 133.895,170.774 
	133.895,203.944 113.616,170.774 103.341,170.774 "/>
<g>
	<defs>
		<rect id="SVGID_33_" x="25.716" y="3.226" width="648.569" height="393.774"/>
	</defs>
	<clipPath id="SVGID_2_">
		<use xlink:href="#SVGID_33_"  overflow="visible"/>
	</clipPath>
	
		<path clip-path="url(#SVGID_2_)" fill="none" stroke="#0091D6" stroke-width="2.1337" stroke-linejoin="round" stroke-miterlimit="9.401" d="
		M167.163,167.286h6.686l12.66-10.174H175.98L167.163,167.286z M181.762,181.433c2.648,2.735,3.973,7.461,3.973,14.179
		c0,6.007-1.088,10.331-3.262,12.968c-2.175,2.638-4.899,3.956-8.171,3.956c-3.446,0-6.272-1.324-8.479-3.972
		c-2.207-2.648-3.31-6.998-3.31-13.049c0-6.158,1.087-10.572,3.262-13.242c2.175-2.67,4.931-4.005,8.269-4.005
		C177.143,178.268,179.716,179.323,181.762,181.433z M165.177,171.339c-2.422,1.023-4.543,2.492-6.363,4.409
		s-3.171,3.984-4.054,6.201c-1.636,4.005-2.454,8.526-2.454,13.566c0,8.377,2.018,14.744,6.056,19.105
		c4.038,4.36,9.329,6.54,15.874,6.54c6.482,0,11.692-2.142,15.633-6.427c3.94-4.285,5.911-10.605,5.911-18.959
		c0-6.159-0.98-11.132-2.939-14.923c-1.959-3.789-4.802-6.696-8.527-8.72c-2.842-1.551-6.589-2.326-11.239-2.326
		C170.231,169.805,167.599,170.317,165.177,171.339z"/>
	
		<polygon clip-path="url(#SVGID_2_)" fill="none" stroke="#0091D6" stroke-width="2.1337" stroke-linejoin="round" stroke-miterlimit="9.401" points="
		214.852,220.191 224.251,220.191 239.289,170.774 229.968,170.774 219.535,204.752 209.232,170.774 199.767,170.774 	"/>
	
		<polygon clip-path="url(#SVGID_2_)" fill="none" stroke="#0091D6" stroke-width="2.1337" stroke-linejoin="round" stroke-miterlimit="9.401" points="
		246.069,220.191 279.208,220.191 279.208,211.665 255.791,211.665 255.791,197.582 270.067,197.582 270.067,190.25 255.791,190.25 
		255.791,179.366 279.208,179.366 279.208,170.774 246.069,170.774 	"/>
	
		<polygon clip-path="url(#SVGID_2_)" fill="none" stroke="#0091D6" stroke-width="2.1337" stroke-linejoin="round" stroke-miterlimit="9.401" points="
		287.799,220.191 296.972,220.191 296.972,176.201 308.878,220.191 314.002,220.191 325.911,176.201 325.911,220.191 
		335.181,220.191 335.181,170.774 319.746,170.774 311.458,201.393 303.238,170.774 287.799,170.774 	"/>
	
		<path clip-path="url(#SVGID_2_)" fill="none" stroke="#0091D6" stroke-width="2.1337" stroke-linejoin="round" stroke-miterlimit="9.401" d="
		M366.027,197.776c2.972,0,5.232,0.689,6.782,2.067c1.551,1.378,2.326,3.112,2.326,5.2c0,2.261-0.851,4.086-2.552,5.475
		c-1.701,1.388-4.565,2.083-8.591,2.083h-7.784v-14.825H366.027z M366.317,178.267c2.627,0,4.554,0.538,5.782,1.615
		c1.228,1.077,1.841,2.487,1.841,4.231c0,1.766-0.528,3.091-1.583,3.973c-1.636,1.378-3.564,2.066-5.781,2.066h-10.368v-11.886
		H366.317z M346.55,220.191h21.737c3.919,0,7.149-0.656,9.69-1.97c2.54-1.313,4.393-3.02,5.556-5.119
		c1.163-2.1,1.744-4.269,1.744-6.509c0-1.916-0.463-3.789-1.389-5.619s-2.228-3.37-3.908-4.619
		c-1.207-0.904-2.961-1.701-5.265-2.391c2.692-0.947,4.737-2.132,6.137-3.553c2.088-2.132,3.133-4.748,3.133-7.848
		c0-4.135-1.744-7.3-5.232-9.496c-2.433-1.529-6.148-2.293-11.143-2.293H346.55V220.191z"/>
	
		<polygon clip-path="url(#SVGID_2_)" fill="none" stroke="#0091D6" stroke-width="2.1337" stroke-linejoin="round" stroke-miterlimit="9.401" points="
		394.159,220.191 427.298,220.191 427.298,211.665 403.881,211.665 403.881,197.582 418.156,197.582 418.156,190.25 403.881,190.25 
		403.881,179.366 427.298,179.366 427.298,170.774 394.159,170.774 	"/>
	
		<path clip-path="url(#SVGID_2_)" fill="none" stroke="#0091D6" stroke-width="2.1337" stroke-linejoin="round" stroke-miterlimit="9.401" d="
		M453.783,179.397c3.23,0,5.577,0.609,7.041,1.825c1.464,1.217,2.196,2.74,2.196,4.571c0,1.917-0.657,3.413-1.97,4.49
		c-2.003,1.614-4.425,2.422-7.267,2.422h-7.785v-13.308H453.783z M436.244,220.191h9.754v-19.864h8.898l8.285,19.864h9.631
		l-8.888-21.672c3.402-1.377,5.792-3.031,7.17-4.958c1.377-1.927,2.067-4.365,2.067-7.315c0-3.208-0.764-6.05-2.293-8.526
		c-1.529-2.476-3.666-4.253-6.411-5.33c-2.746-1.077-7.704-1.615-14.874-1.615h-13.339V220.191z"/>
	<path clip-path="url(#SVGID_2_)" fill="none" stroke="#0091D6" stroke-width="9.0794" d="M435.938,158.355
		c0,0,25.736-104.163,149.273-104.163"/>
	<path clip-path="url(#SVGID_2_)" fill="#0091D6" d="M106.384,132.304c5.192,0,9.401-4.209,9.401-9.401
		c0-5.193-4.208-9.402-9.401-9.402c-5.193,0-9.401,4.209-9.401,9.402C96.984,128.095,101.192,132.304,106.384,132.304"/>
	<path clip-path="url(#SVGID_2_)" fill="#FFE900" d="M615.67,104.549c5.193,0,9.401-4.209,9.401-9.401
		c0-5.193-4.208-9.402-9.401-9.402s-9.401,4.209-9.401,9.402C606.269,100.34,610.477,104.549,615.67,104.549"/>
	<path clip-path="url(#SVGID_2_)" fill="none" stroke="#0091D6" stroke-width="4.5397" d="M335.674,340.171
		c0,0-142.872,134.028-218.791-32.56"/>
	<path clip-path="url(#SVGID_2_)" fill="none" stroke="#FFE900" stroke-width="4.5397" d="M104.129,101.214
		c0,0-14.001-123.767-77.341-89.827"/>
	<path clip-path="url(#SVGID_2_)" fill="none" stroke="#FFE900" stroke-width="2.7238" d="M505.105,287.304
		c0,0,170.31-69.495,128.316-137.251"/>
</g>
<rect x="80.556" y="151.604" fill="none" stroke="#FFE900" stroke-width="4.5397" width="408.787" height="86.647"/>
<rect x="477.73" y="256.104" transform="matrix(0.3584 -0.9336 0.9336 0.3584 53.7817 683.9732)" fill="none" stroke="#0091D6" stroke-width="2.7238" width="93.51" height="93.511"/>
<rect x="457.836" y="264.924" transform="matrix(0.3584 -0.9336 0.9336 0.3584 32.7834 671.0595)" fill="none" stroke="#0091D6" stroke-width="2.7238" width="93.51" height="93.511"/>
<rect x="486.485" y="251.874" transform="matrix(0.3584 -0.9336 0.9336 0.3584 63.3484 689.4324)" fill="none" stroke="#FFE900" stroke-width="2.7238" width="93.51" height="93.511"/>
<rect x="466.59" y="260.694" transform="matrix(0.3584 -0.9336 0.9336 0.3584 42.3497 676.5182)" fill="none" stroke="#FFE900" stroke-width="2.7238" width="93.51" height="93.511"/>
<g>
	<defs>
		<rect id="SVGID_35_" x="25.716" y="3.226" width="648.569" height="393.774"/>
	</defs>
	<clipPath id="SVGID_4_">
		<use xlink:href="#SVGID_35_"  overflow="visible"/>
	</clipPath>
	<path clip-path="url(#SVGID_4_)" fill="none" stroke="#0091D6" stroke-width="8.1714" d="M524.447,332.907
		c0,0,177.202,19.556,140.831,61.413"/>
	<path clip-path="url(#SVGID_4_)" fill="none" stroke="#0091D6" stroke-width="10.6265" d="M231.51,96.173
		c0,0-19.057-80.286,83.348-71.328"/>
</g>
<line fill="none" stroke="#0091D6" stroke-width="10.6265" x1="247.385" y1="85.61" x2="226.14" y2="96.767"/>
<line fill="none" stroke="#0091D6" stroke-width="10.6265" x1="213.628" y1="81.602" x2="231.819" y2="97.251"/>
</svg>
