<?xml version="1.0" encoding="utf-8"?>
<!-- Generator: Adobe Illustrator 17.0.0, SVG Export Plug-In . SVG Version: 6.00 Build 0)  -->
<!DOCTYPE svg PUBLIC "-//W3C//DTD SVG 1.1//EN" "http://www.w3.org/Graphics/SVG/1.1/DTD/svg11.dtd">
<svg version="1.1" id="Layer_1" xmlns="http://www.w3.org/2000/svg" xmlns:xlink="http://www.w3.org/1999/xlink" x="0px" y="0px"
	 width="700px" height="400px" viewBox="0 0 700 400" enable-background="new 0 0 700 400" xml:space="preserve">
<g>
	<defs>
		<rect id="SVGID_23_" x="111.781" y="34.549" width="335.086" height="264.071"/>
	</defs>
	<clipPath id="SVGID_2_">
		<use xlink:href="#SVGID_23_"  overflow="visible"/>
	</clipPath>
	<path clip-path="url(#SVGID_2_)" fill="none" stroke="#281F0F" stroke-width="1.1173" stroke-miterlimit="10" d="M131.31-41.726
		c0,34.147-2.761,69.607,0.826,103.598c2.445,23.166,9.861,45.26,11.114,68.635c1.414,26.386,2.277,54.357,0.871,80.743
		c-1.453,27.285-9.807,53.429-11.939,80.669"/>
	<path clip-path="url(#SVGID_2_)" fill="none" stroke="#281F0F" stroke-width="1.1173" stroke-miterlimit="10" d="M146.884-39.202
		c0,33.468-2.077,67.698,0.63,101.075c1.87,23.046,7.282,45.488,8.527,68.634c1.433,26.64,4.383,54.071,3.654,80.743
		c-0.742,27.114-7.537,53.596-9.155,80.669"/>
	<path clip-path="url(#SVGID_2_)" fill="none" stroke="#281F0F" stroke-width="1.1173" stroke-miterlimit="10" d="M162.459-35.912
		c0,55.888,2.524,110.719,5.525,166.418c1.452,26.968,7.042,53.734,7.285,80.743c0.243,26.939-4.694,53.742-5.524,80.669"/>
	<path clip-path="url(#SVGID_2_)" fill="none" stroke="#281F0F" stroke-width="1.1173" stroke-miterlimit="10" d="M178.033-32.86
		c0,56.207-1.659,113.075,2.383,169.178c1.748,24.253,9.239,47.679,10.349,71.998c1.269,27.782-1.919,55.803-2.08,83.602"/>
	<path clip-path="url(#SVGID_2_)" fill="none" stroke="#281F0F" stroke-width="1.1173" stroke-miterlimit="10" d="M193.607-31.055
		c0,55.244-3.989,112.284,0.393,167.374c1.94,24.388,11.048,47.522,12.348,71.998c1.472,27.724-0.19,55.84-0.097,83.602"/>
	<path clip-path="url(#SVGID_2_)" fill="none" stroke="#281F0F" stroke-width="1.1173" stroke-miterlimit="10" d="M209.181-30.905
		c0,54.928-4.016,111.618,0.243,166.394c1.914,24.63,10.667,48.16,11.93,72.871c1.415,27.701,0.08,55.821,0.08,83.559"/>
	<path clip-path="url(#SVGID_2_)" fill="none" stroke="#281F0F" stroke-width="1.1173" stroke-miterlimit="10" d="M224.755-30.905
		c0,54.039-2.966,109.06,0.201,163.019c1.503,25.608,8.432,50.576,9.455,76.23c1.108,27.767,0.069,55.785,0.069,83.574"/>
	<path clip-path="url(#SVGID_2_)" fill="none" stroke="#281F0F" stroke-width="1.1173" stroke-miterlimit="10" d="M240.33-30.905
		c0,107.865,6.161,215.094,6.161,322.824"/>
	<path clip-path="url(#SVGID_2_)" fill="none" stroke="#281F0F" stroke-width="1.1173" stroke-miterlimit="10" d="M255.904-30.905
		c0,107.66,2.669,215.188,2.669,322.824"/>
	<path clip-path="url(#SVGID_2_)" fill="none" stroke="#281F0F" stroke-width="1.1173" stroke-miterlimit="10" d="M271.478-30.905
		c0,107.61,0.363,215.214,0.363,322.824"/>
	<path clip-path="url(#SVGID_2_)" fill="none" stroke="#281F0F" stroke-width="1.1173" stroke-miterlimit="10" d="M287.042-30.82
		c-0.013,107.402,0.011,214.804,0.011,322.205"/>
	<path clip-path="url(#SVGID_2_)" fill="none" stroke="#281F0F" stroke-width="1.1173" stroke-miterlimit="10" d="M302.538-30.211
		c0.031,105.918,0.088,211.835,0.088,317.753"/>
	<path clip-path="url(#SVGID_2_)" fill="none" stroke="#281F0F" stroke-width="1.1173" stroke-miterlimit="10" d="M317.992-29.267
		c0.135,103.618,0.209,207.235,0.209,310.852"/>
	<path clip-path="url(#SVGID_2_)" fill="none" stroke="#281F0F" stroke-width="1.1173" stroke-miterlimit="10" d="M333.442-28.291
		c0.239,101.24,0.333,202.476,0.333,303.718"/>
	<path clip-path="url(#SVGID_2_)" fill="none" stroke="#281F0F" stroke-width="1.1173" stroke-miterlimit="10" d="M348.926-27.586
		c0.305,99.522,0.423,199.039,0.423,298.561"/>
	<path clip-path="url(#SVGID_2_)" fill="none" stroke="#281F0F" stroke-width="1.1173" stroke-miterlimit="10" d="M364.483-27.376
		c0.451,99.159,0.751,198.34,0.44,297.499"/>
	<path clip-path="url(#SVGID_2_)" fill="none" stroke="#281F0F" stroke-width="1.1173" stroke-miterlimit="10" d="M380.123-26.813
		c-0.028,100.109-0.244,200.164,0.374,300.223"/>
	<path clip-path="url(#SVGID_2_)" fill="none" stroke="#281F0F" stroke-width="1.1173" stroke-miterlimit="10" d="M395.813-25.831
		c-0.762,49.826-4.491,99.625-4.82,149.464c-0.345,52.234,3.357,103.518,5.079,155.506"/>
	<path clip-path="url(#SVGID_2_)" fill="none" stroke="#281F0F" stroke-width="1.1173" stroke-miterlimit="10" d="M411.514-24.758
		c-1.597,47.92-7.742,95.757-8.388,143.733c-0.389,28.9-0.272,57.878,0,86.778c0.255,26.9,6.884,52.854,8.52,79.645"/>
	<path clip-path="url(#SVGID_2_)" fill="none" stroke="#281F0F" stroke-width="1.1173" stroke-miterlimit="10" d="M427.187-23.921
		c-2.161,48.495-10.726,96.778-11.169,145.412c-0.266,29.234-0.655,58.616,0,87.842c0.614,27.415,9.129,53.648,11.202,80.947"/>
	<path clip-path="url(#SVGID_2_)" fill="none" stroke="#281F0F" stroke-width="1.1173" stroke-miterlimit="10" d="M438.708,1.672
		c-54.995-0.465-109.96-2.781-164.929-3.154c-23.946-0.162-47.917,0.433-71.857,0c-28.022-0.506-55.474-6.587-83.44-8.107"/>
	<path clip-path="url(#SVGID_2_)" fill="none" stroke="#281F0F" stroke-width="1.1173" stroke-miterlimit="10" d="M436.856,13.377
		c-106.459,1.642-212.066-1.179-318.373-4.092"/>
	<path clip-path="url(#SVGID_2_)" fill="none" stroke="#281F0F" stroke-width="1.1173" stroke-miterlimit="10" d="M435.17,25.432
		c-105.773,3.876-210.791,2.877-316.688,2.428"/>
	<path clip-path="url(#SVGID_2_)" fill="none" stroke="#281F0F" stroke-width="1.1173" stroke-miterlimit="10" d="M434.215,39.011
		c-53.735,2.322-106.46,6.215-160.435,6.23c-51.765,0.013-103.534-0.252-155.297-0.108"/>
	<path clip-path="url(#SVGID_2_)" fill="none" stroke="#281F0F" stroke-width="1.1173" stroke-miterlimit="10" d="M433.872,53.951
		c-29.961,1.144-59.023,7.065-89.125,6.923c-23.664-0.112-47.298-1.117-70.968-1.013c-51.551,0.226-103.084,0.954-154.646,0.954"/>
	<path clip-path="url(#SVGID_2_)" fill="none" stroke="#281F0F" stroke-width="1.1173" stroke-miterlimit="10" d="M432.737,67.487
		c-26.508,1.446-52.009,9.27-78.65,8.91c-24.914-0.337-49.569-4.425-74.508-4.425c-52.543,0-105.128,4.418-157.842,4.418"/>
	<path clip-path="url(#SVGID_2_)" fill="none" stroke="#281F0F" stroke-width="1.1173" stroke-miterlimit="10" d="M431.177,80.259
		c-26.048,2.079-50.793,12.611-77.09,11.544c-25.068-1.017-49.34-9.119-74.507-9.119c-25.148,0-49.467,7.84-74.507,9.119
		c-26.453,1.351-53.27,0.161-79.753,0.161"/>
	<path clip-path="url(#SVGID_2_)" fill="none" stroke="#281F0F" stroke-width="1.1173" stroke-miterlimit="10" d="M429.673,93.131
		c-25.57,2.668-49.622,15.804-75.586,14.093c-25.279-1.667-49.016-13.652-74.507-13.652c-25.441,0-49.298,11.612-74.508,13.652
		c-25.136,2.032-51.093,0.313-76.301,0.313"/>
	<path clip-path="url(#SVGID_2_)" fill="none" stroke="#281F0F" stroke-width="1.1173" stroke-miterlimit="10" d="M428.707,106.969
		c-26.544,3.179-50.817,18.683-78.023,15.404c-26.312-3.172-50.307-18.109-77.409-15.871c-26.974,2.229-50.991,15.896-78.41,16.61
		c-21.255,0.553-42.61,0-63.874,0"/>
	<path clip-path="url(#SVGID_2_)" fill="none" stroke="#281F0F" stroke-width="1.1173" stroke-miterlimit="10" d="M428.575,122.812
		c-26.414,3.209-50.834,18.36-77.891,15.133c-26.327-3.141-50.352-18.015-77.46-15.776c-26.839,2.217-50.701,15.81-77.99,16.518
		c-21.278,0.553-42.656,0-63.94,0"/>
	<path clip-path="url(#SVGID_2_)" fill="none" stroke="#281F0F" stroke-width="1.1173" stroke-miterlimit="10" d="M428.575,141.557
		c-26.226,2.63-51.248,14.683-77.891,12.063c-26.159-2.572-50.755-14.527-77.43-12.785c-25.827,1.686-49.579,12.83-75.723,13.426
		c-22.05,0.503-44.179,0-66.236,0"/>
	<path clip-path="url(#SVGID_2_)" fill="none" stroke="#281F0F" stroke-width="1.1173" stroke-miterlimit="10" d="M428.575,161.92
		c-26.122,1.495-51.6,9.235-77.891,7.563c-25.96-1.651-51.111-9.639-77.307-8.51c-24.45,1.054-47.821,8.543-72.435,8.863
		c-23.207,0.301-46.439,0-69.647,0"/>
	<path clip-path="url(#SVGID_2_)" fill="none" stroke="#281F0F" stroke-width="1.1173" stroke-miterlimit="10" d="M428.575,182.383
		c-26.016,0.334-51.847,3.696-77.891,2.975c-25.787-0.713-51.33-4.773-77.179-4.154c-47.478,1.136-94.562,4.207-142.211,4.207"/>
	<path clip-path="url(#SVGID_2_)" fill="none" stroke="#281F0F" stroke-width="1.1173" stroke-miterlimit="10" d="M428.575,201.427
		c-99.114-1.229-198.166-0.445-297.28-0.445"/>
	<path clip-path="url(#SVGID_2_)" fill="none" stroke="#281F0F" stroke-width="1.1173" stroke-miterlimit="10" d="M428.727,217.763
		c-99.175-0.348-198.382-1.207-297.594-1.207"/>
	<path clip-path="url(#SVGID_2_)" fill="none" stroke="#281F0F" stroke-width="1.1173" stroke-miterlimit="10" d="M430.592,233.149
		c-25.628-0.498-50.836-5.092-76.505-4.75c-24.891,0.331-49.602,3.437-74.507,3.733c-50.125,0.595-100.294,0-150.421,0"/>
	<path clip-path="url(#SVGID_2_)" fill="none" stroke="#281F0F" stroke-width="1.1173" stroke-miterlimit="10" d="M433.76,248.404
		c-26.784-1.72-52.715-11.14-79.673-10.013c-25.091,1.049-49.353,8.343-74.507,9.315c-51.088,1.974-102.661,0-153.776,0"/>
	<path clip-path="url(#SVGID_2_)" fill="none" stroke="#281F0F" stroke-width="1.1173" stroke-miterlimit="10" d="M437.186,263.632
		c-31.218-3.394-60.588-19.882-92.44-14.387c-24.169,4.171-45.999,13.054-70.778,14.035c-50.422,1.995-101.34,0-151.791,0"/>
	<path clip-path="url(#SVGID_2_)" fill="none" stroke="#281F0F" stroke-width="1.1173" stroke-miterlimit="10" d="M439.828,278.94
		c-31.921-4.399-62.262-25.795-95.081-18.415c-24.504,5.51-45.256,17.011-70.778,18.329c-51.228,2.647-103.315,0-154.588,0"/>
</g>
<g>
	<defs>
		<rect id="SVGID_27_" x="429.08" y="56" width="240.245" height="205.033"/>
	</defs>
	<clipPath id="SVGID_4_">
		<use xlink:href="#SVGID_27_"  overflow="visible"/>
	</clipPath>
	<path clip-path="url(#SVGID_4_)" fill="none" stroke="#281F0F" stroke-width="0.7955" d="M622.105,79.031l-7.294-13.882l-1.6-1.522
		l-1.623,0.938l-1.545,15.318l0.625,2.084l2.436,4.218l1.6,1.522l0.541-0.313c1.083-0.624,4.282,2.418,6.4,6.086l26.681,46.213
		c2.118,3.668,3.153,7.96,2.071,8.585l-0.65,0.375l0.414,1.717l4.658,8.069l1.28,1.217l12.77-7.372l-0.414-1.717l-4.658-8.068
		l-1.28-1.218l-0.649,0.375c-1.083,0.624-4.282-2.418-6.4-6.086l-19.588-33.926c-7.411-12.837-11.717-24.044-12.103-28.711
		c4.552,7.885,9.938,13.089,12.319,11.715c2.435-1.406,0.673-8.457-3.88-16.343c-4.658-8.068-10.152-13.21-12.911-11.617
		C615.733,58.748,617.583,67.949,622.105,79.031z M613.482,114.329l-9.235,9.244l-1.12-1.064
		c-10.423-18.678-15.129-33.077-10.584-35.701c3.517-2.031,10.822,5,18.551,18.386C613.212,108.862,614.948,112.994,613.482,114.329
		z M626.855,117.123l-0.414-1.717c-14.081-24.39-31.376-44.724-40.467-39.476c-7.737,4.467-2.21,28.661,13.143,55.252
		c15.881,27.508,33.901,45.223,42.342,40.35c6.438-3.717,4.217-19.062-6.279-41.365l-1.329-1.678l-1.018-0.39l-0.118,1.046
		c4.556,13.263,4.906,21.618,0.361,24.243c-4.924,2.842-13.998-4.878-22.958-19.021L626.855,117.123z M603.182,178.959
		c-5.357,3.093-17.949-13.844-28.748-32.549c-10.799-18.705-19.171-38.079-13.814-41.172c5.357-3.093,17.948,13.844,28.748,32.55
		C600.167,156.493,608.538,175.866,603.182,178.959z M583.18,177.304c2.118,3.667,3.153,7.96,2.071,8.585l-0.649,0.375l0.414,1.717
		l4.658,8.068l1.28,1.217l9.523-5.497l-0.414-1.717l-4.658-8.068c6.022,6.058,11.641,9.417,15.591,7.136
		c7.574-4.373,1.713-27.397-14.486-55.454c-17.575-30.442-33.585-44.427-40.89-40.21c-3.517,2.031-3.949,7.905-2.036,16.091
		l-18.105-31.359l-9.2-17.184l-1.6-1.522l-1.624,0.937l-2.201,16.431l3.176,5.501l1.6,1.521l0.541-0.312
		c1.083-0.625,4.282,2.418,6.399,6.085L583.18,177.304z M507.776,105.429l1.223,1.494l3.895-2.249l0.125-1.783l-5.942-25.912
		l-1.275-1.709l-6.493,3.749l0.037,1.69L507.776,105.429z M569.028,199.9c-4.978,2.874-16.626-11.428-29.332-33.434
		c-12.705-22.007-19.267-39.246-14.289-42.12c4.978-2.874,16.626,11.429,29.331,33.435
		C567.444,179.787,574.006,197.026,569.028,199.9z M574.851,209.986c8.008-4.623,2.7-29.188-12.97-56.329
		c-15.67-27.141-34.289-44.02-42.297-39.397c-8.008,4.623-2.699,29.188,12.971,56.329
		C548.224,197.73,566.843,214.61,574.851,209.986z M544.666,209.809c-2.543,1.468-7.291-2.881-14.173-14.801l-29.857-51.714
		l6.817-3.936l-0.414-1.717l-4.659-8.068l-1.28-1.217l-6.817,3.936l-13.435-24.519l-1.6-1.521l-0.811,0.469l7.443,37.758
		l2.329,4.035l1.28,1.217l1.84-1.062c1.083-0.625,4.176,2.234,6.4,6.085l25.622,44.379c12.705,22.006,21.525,28.161,26.287,25.412
		c6.385-3.686,0.54-17.183-5.375-28.928l-1.223-1.494l-1.018-0.39l-0.118,1.046C546.225,204.263,546.722,208.622,544.666,209.809z
		 M524.294,235.752l8.765-5.061l-0.414-1.717l-4.659-8.069l-1.28-1.217l-1.569,0.906c-0.812,0.469-2.04-0.534-4.383-3.093
		l-28.925-30.981l-6.252-27.199c-1.139-4.721-1.499-6.47-0.417-7.095l0.974-0.562l-0.414-1.717l-4.659-8.069l-1.28-1.217
		l-9.901,5.717l0.414,1.717l4.659,8.069l1.28,1.217l1.082-0.624c0.649-0.375,1.555,0.569,2.297,1.853
		c0.635,1.1,1.002,2.111,1.312,3.399l8.06,35.202l-39.916-69.136l-9.2-17.184l-1.6-1.522l-1.623,0.937l-2.202,16.431l3.177,5.501
		l1.6,1.521l0.541-0.312c1.082-0.625,4.282,2.418,6.4,6.085l50.609,87.658c2.118,3.667,3.152,7.96,2.071,8.585l-0.649,0.375
		l0.414,1.717l4.659,8.068l1.28,1.218l12.769-7.373l-0.414-1.717l-4.659-8.069l-1.28-1.217l-0.649,0.375
		c-1.082,0.624-4.282-2.418-6.4-6.086l-6.034-10.453l-1.499-6.47l26.365,28.546L524.294,235.752z M482.618,249.788
		c-4.977,2.874-16.626-11.428-29.331-33.434c-12.705-22.007-19.268-39.246-14.29-42.12s16.627,11.429,29.332,33.435
		C481.035,229.676,487.596,246.915,482.618,249.788z M488.442,259.875c8.008-4.623,2.699-29.188-12.971-56.329
		c-15.67-27.141-34.289-44.02-42.297-39.397c-8.008,4.623-2.7,29.188,12.97,56.329C461.815,247.618,480.434,264.498,488.442,259.875
		z"/>
</g>
<g>
	<defs>
		<rect id="SVGID_29_" x="360.13" y="20.456" width="279.582" height="399.089"/>
	</defs>
	<clipPath id="SVGID_6_">
		<use xlink:href="#SVGID_29_"  overflow="visible"/>
	</clipPath>
	
		<line clip-path="url(#SVGID_6_)" fill="none" stroke="#FFE900" stroke-width="7.8004" x1="362.991" y1="243.318" x2="523.852" y2="416.893"/>
	<path clip-path="url(#SVGID_6_)" fill="none" stroke="#FFE900" stroke-width="2.3401" stroke-dasharray="6.522,4.1818" d="
		M596.93,60.285c2.456-1.496,4.402-3.747,5.514-6.431"/>
	<path clip-path="url(#SVGID_6_)" fill="none" stroke="#FFE900" stroke-width="2.3401" stroke-dasharray="6.522,4.1818" d="
		M601.498,41.561c-1.496-2.456-3.747-4.402-6.431-5.514"/>
	<path clip-path="url(#SVGID_6_)" fill="none" stroke="#FFE900" stroke-width="2.3401" stroke-dasharray="6.522,4.1818" d="
		M582.774,36.992c-2.456,1.496-4.402,3.747-5.514,6.431"/>
	<path clip-path="url(#SVGID_6_)" fill="none" stroke="#FFE900" stroke-width="2.3401" stroke-dasharray="6.522,4.1818" d="
		M578.206,55.716c1.496,2.456,3.747,4.402,6.431,5.514"/>
	<path clip-path="url(#SVGID_6_)" fill="none" stroke="#FFE900" stroke-width="2.3401" d="M586.621,61.879
		c1.036,0.252,2.117,0.386,3.23,0.386s2.195-0.134,3.231-0.386 M576.611,45.408c-0.252,1.035-0.385,2.117-0.385,3.23
		s0.133,2.195,0.385,3.23 M593.082,35.397c-1.036-0.251-2.118-0.385-3.231-0.385s-2.194,0.133-3.23,0.385 M603.093,51.869
		c0.252-1.035,0.385-2.117,0.385-3.23s-0.133-2.195-0.385-3.23"/>
	<path clip-path="url(#SVGID_6_)" fill="none" stroke="#B1DCE0" stroke-width="7.8004" d="M425.306,184.17
		c0,0-55.279-213.068-4.422-147.165"/>
	<path clip-path="url(#SVGID_6_)" fill="none" stroke="#B1DCE0" stroke-width="7.8004" d="M421.511,263.66
		c0,0,247.727-14.666,200.486,87.329"/>
	
		<line clip-path="url(#SVGID_6_)" fill="none" stroke="#B1DCE0" stroke-width="7.8004" x1="612.879" y1="337.279" x2="624.647" y2="352.605"/>
	
		<line clip-path="url(#SVGID_6_)" fill="none" stroke="#B1DCE0" stroke-width="7.8004" x1="637.845" y1="343.17" x2="620.35" y2="352.711"/>
</g>
<g>
	<defs>
		<rect id="SVGID_31_" x="33.989" y="30.03" width="312.618" height="363.955"/>
	</defs>
	<clipPath id="SVGID_8_">
		<use xlink:href="#SVGID_31_"  overflow="visible"/>
	</clipPath>
	<path clip-path="url(#SVGID_8_)" fill="none" stroke="#B1DCE0" stroke-width="10" d="M52.415,149.755
		c0,0,28.346-114.725,164.409-114.725"/>
	<path clip-path="url(#SVGID_8_)" fill="#FFE900" d="M44.344,190.306c5.719,0,10.354-4.636,10.354-10.354
		c0-5.719-4.635-10.355-10.354-10.355s-10.354,4.636-10.354,10.355C33.99,185.67,38.625,190.306,44.344,190.306"/>
	<path clip-path="url(#SVGID_8_)" fill="none" stroke="#B1DCE0" stroke-width="5" d="M345.022,319.295
		c0,0-207.925,170.663-291.542-12.818"/>
	<path clip-path="url(#SVGID_8_)" fill="none" stroke="#FFE900" stroke-width="8" d="M115.053,270.788
		c0,0,101.614-46.771,140.807-4.96"/>
</g>
</svg>
