<?xml version="1.0" encoding="utf-8"?>
<!-- Generator: Adobe Illustrator 17.0.0, SVG Export Plug-In . SVG Version: 6.00 Build 0)  -->
<!DOCTYPE svg PUBLIC "-//W3C//DTD SVG 1.1//EN" "http://www.w3.org/Graphics/SVG/1.1/DTD/svg11.dtd">
<svg version="1.1" id="Layer_1" xmlns="http://www.w3.org/2000/svg" xmlns:xlink="http://www.w3.org/1999/xlink" x="0px" y="0px"
	 width="700px" height="400px" viewBox="0 0 700 400" enable-background="new 0 0 700 400" xml:space="preserve">
<rect width="700" height="400"/>
<g>
	<defs>
		<rect id="SVGID_15_" x="150.919" y="73.795" width="582.975" height="252.41"/>
	</defs>
	<clipPath id="SVGID_2_">
		<use xlink:href="#SVGID_15_"  overflow="visible"/>
	</clipPath>
	
		<path clip-path="url(#SVGID_2_)" fill="none" stroke="#FFFFFF" stroke-width="2.9871" stroke-linejoin="bevel" stroke-miterlimit="20.899" d="
		M184.913,144.186c0.548,2.644,1.228,4.777,2.04,6.398c1.241,2.523,3.001,4.746,5.278,6.67c2.277,1.923,5.19,3.386,8.74,4.387
		c3.753,1.059,7.278,1.284,10.575,0.676c3.296-0.609,6.052-2.028,8.268-4.26s3.694-4.658,4.434-7.281
		c0.701-2.487,0.813-5.068,0.335-7.742c-0.479-2.673-1.659-5.069-3.54-7.186c-1.88-2.117-4.892-4.358-9.034-6.723
		c-4.143-2.364-6.621-4.223-7.435-5.575c-0.838-1.359-1.052-2.762-0.644-4.209c0.51-1.809,1.629-3.159,3.358-4.052
		c1.728-0.891,3.734-1.016,6.018-0.371c1.854,0.522,3.405,1.472,4.652,2.85c1.247,1.377,2.304,3.299,3.172,5.765l9.533-1.083
		c-0.562-2.16-1.237-3.925-2.023-5.294c-1.221-2.077-2.89-3.97-5.007-5.678c-2.118-1.708-4.715-2.996-7.79-3.863
		c-5.405-1.524-10.059-1.293-13.964,0.693c-3.905,1.988-6.472,5.163-7.703,9.527c-1.148,4.07-0.562,7.922,1.758,11.554
		c1.869,2.895,5.473,5.913,10.812,9.054c3.909,2.324,6.303,4.268,7.18,5.834c0.854,1.559,1.055,3.141,0.601,4.746
		c-0.516,1.832-1.722,3.207-3.616,4.125c-1.895,0.918-4.199,0.995-6.912,0.229c-2.261-0.638-4.077-1.711-5.445-3.219
		c-1.368-1.509-2.539-3.829-3.511-6.959L184.913,144.186z"/>
	
		<polygon clip-path="url(#SVGID_2_)" fill="none" stroke="#FFFFFF" stroke-width="2.9871" stroke-linejoin="bevel" stroke-miterlimit="20.899" points="
		230.225,168.793 265.026,178.607 267.552,169.653 242.96,162.718 247.131,147.929 262.124,152.158 264.295,144.457 
		249.302,140.229 252.526,128.799 277.118,135.734 279.663,126.712 244.862,116.897 	"/>
	
		<path clip-path="url(#SVGID_2_)" fill="none" stroke="#FFFFFF" stroke-width="2.9871" stroke-linejoin="bevel" stroke-miterlimit="20.899" d="
		M305.212,143.621c3.459,0.976,5.752,2.281,6.878,3.917c1.125,1.636,1.411,3.437,0.856,5.405c-0.6,2.126-1.749,3.559-3.446,4.301
		c-2.566,1.132-5.408,1.258-8.529,0.377l-8.344-2.353l3.97-14.076L305.212,143.621z M274.184,181.191l10.311,2.908l5.74-20.351
		l9.09,2.564c3.753,1.059,7.169,1.411,10.247,1.059c1.813-0.197,3.713-0.722,5.7-1.578c1.986-0.856,3.614-2.02,4.885-3.493
		c1.649-1.952,2.846-4.25,3.592-6.896c0.963-3.415,0.89-6.554-0.219-9.417c-1.109-2.864-2.97-5.177-5.586-6.94
		c-2.615-1.763-6.851-3.47-12.707-5.122l-16.417-4.63L274.184,181.191z"/>
	
		<polygon clip-path="url(#SVGID_2_)" fill="none" stroke="#FFFFFF" stroke-width="2.9871" stroke-linejoin="bevel" stroke-miterlimit="20.899" points="
		331.179,150.871 345.73,154.975 333.61,197.951 343.786,200.821 355.906,157.845 370.525,161.968 373.041,153.047 333.695,141.951 
			"/>
	
		<polygon clip-path="url(#SVGID_2_)" fill="none" stroke="#FFFFFF" stroke-width="2.9871" stroke-linejoin="bevel" stroke-miterlimit="20.899" points="
		366.918,207.344 401.719,217.159 404.245,208.205 379.653,201.269 383.824,186.48 398.817,190.709 400.988,183.009 
		385.996,178.781 389.219,167.35 413.811,174.286 416.356,165.263 381.555,155.448 	"/>
</g>
<polygon fill="none" stroke="#FFFFFF" stroke-width="2.9871" stroke-linejoin="bevel" stroke-miterlimit="20.899" points="
	410.742,219.704 420.375,222.42 433.404,176.223 432.877,225.947 438.259,227.465 463.795,184.794 450.766,230.991 460.501,233.737 
	475.137,181.841 458.928,177.27 441.155,206.97 441.592,172.381 425.378,167.807 "/>
<g>
	<defs>
		<rect id="SVGID_17_" x="150.919" y="73.795" width="582.975" height="252.41"/>
	</defs>
	<clipPath id="SVGID_4_">
		<use xlink:href="#SVGID_17_"  overflow="visible"/>
	</clipPath>
	
		<path clip-path="url(#SVGID_4_)" fill="none" stroke="#FFFFFF" stroke-width="2.9871" stroke-linejoin="bevel" stroke-miterlimit="20.899" d="
		M499.532,219.333c3.12,0.88,5.291,2.274,6.51,4.18c1.22,1.906,1.521,3.957,0.903,6.15c-0.67,2.374-2.104,4.039-4.301,4.993
		c-2.198,0.955-5.412,0.835-9.64-0.357l-8.175-2.305l4.391-15.569L499.532,219.333z M505.615,198.932
		c2.759,0.778,4.624,1.914,5.593,3.408c0.97,1.495,1.197,3.158,0.681,4.989c-0.523,1.854-1.47,3.089-2.839,3.703
		c-2.127,0.963-4.355,1.115-6.684,0.458l-10.888-3.071l3.52-12.482L505.615,198.932z M472.44,237.105l22.827,6.438
		c4.115,1.16,7.702,1.428,10.76,0.8c3.057-0.627,5.507-1.871,7.35-3.731c1.843-1.86,3.096-3.966,3.759-6.318
		c0.568-2.013,0.636-4.117,0.206-6.313c-0.431-2.196-1.342-4.199-2.736-6.008c-1-1.307-2.606-2.663-4.821-4.069
		c3.107-0.197,5.605-0.835,7.497-1.913c2.824-1.62,4.696-4.059,5.614-7.315c1.225-4.342,0.331-8.182-2.682-11.522
		c-2.103-2.326-5.777-4.229-11.023-5.708l-22.115-6.237L472.44,237.105z"/>
	
		<polygon clip-path="url(#SVGID_4_)" fill="none" stroke="#FFFFFF" stroke-width="2.9871" stroke-linejoin="bevel" stroke-miterlimit="20.899" points="
		522.437,251.205 557.237,261.02 559.763,252.066 535.172,245.13 539.343,230.341 554.335,234.57 556.506,226.869 541.514,222.642 
		544.737,211.211 569.329,218.146 571.874,209.124 537.073,199.309 	"/>
	
		<path clip-path="url(#SVGID_4_)" fill="none" stroke="#FFFFFF" stroke-width="2.9871" stroke-linejoin="bevel" stroke-miterlimit="20.899" d="
		M597.133,226.025c3.392,0.956,5.676,2.291,6.854,4.002c1.177,1.711,1.494,3.528,0.952,5.45c-0.567,2.013-1.701,3.389-3.398,4.13
		c-2.582,1.104-5.365,1.234-8.349,0.392l-8.175-2.305l3.941-13.974L597.133,226.025z M566.633,263.67l10.244,2.889l5.883-20.86
		l9.343,2.635l2.818,23.314l10.114,2.852l-2.915-25.392c3.98-0.439,6.98-1.467,8.998-3.083c2.018-1.615,3.464-3.972,4.338-7.07
		c0.951-3.369,0.99-6.58,0.118-9.633c-0.873-3.053-2.591-5.552-5.155-7.495c-2.564-1.944-7.611-3.978-15.141-6.102l-14.008-3.951
		L566.633,263.67z"/>
</g>
<line fill="none" stroke="#FFFFFF" stroke-width="13.0435" x1="115.535" y1="32.483" x2="155.48" y2="125.846"/>
<line fill="none" stroke="#FFFFFF" stroke-width="13.0435" x1="216.333" y1="174" x2="144.992" y2="316.787"/>
<g>
	<defs>
		<rect id="SVGID_19_" x="4.391" y="8.652" width="695.609" height="384.241"/>
	</defs>
	<clipPath id="SVGID_6_">
		<use xlink:href="#SVGID_19_"  overflow="visible"/>
	</clipPath>
	
		<line clip-path="url(#SVGID_6_)" fill="none" stroke="#FFFFFF" stroke-width="13.0435" x1="30.073" y1="233.605" x2="114.342" y2="287.077"/>
</g>
<line fill="none" stroke="#FFFFFF" stroke-width="13.0435" x1="298.845" y1="293.051" x2="250.692" y2="333.367"/>
<g>
	<defs>
		<rect id="SVGID_21_" x="4.391" y="8.652" width="695.609" height="384.241"/>
	</defs>
	<clipPath id="SVGID_8_">
		<use xlink:href="#SVGID_21_"  overflow="visible"/>
	</clipPath>
	
		<line clip-path="url(#SVGID_8_)" fill="none" stroke="#FFFFFF" stroke-width="13.0435" x1="4.407" y1="89.349" x2="260.542" y2="89.774"/>
	<path clip-path="url(#SVGID_8_)" fill="#D71D22" d="M40.913,48.377c3.602,0,6.522-2.776,6.522-6.201
		c0-3.425-2.92-6.201-6.522-6.201c-3.602,0-6.522,2.776-6.522,6.201C34.391,45.602,37.311,48.377,40.913,48.377"/>
	<path clip-path="url(#SVGID_8_)" fill="#D71D22" d="M170.521,345.768c3.208,0,5.808-2.776,5.808-6.201
		c0-3.425-2.6-6.201-5.808-6.201c-3.208,0-5.808,2.776-5.808,6.201C164.713,342.992,167.313,345.768,170.521,345.768"/>
	<path clip-path="url(#SVGID_8_)" fill="#D71D22" d="M670.391,107.918c3.524,0,6.381-2.776,6.381-6.201
		c0-3.425-2.857-6.201-6.381-6.201c-3.524,0-6.381,2.776-6.381,6.201C664.01,105.142,666.867,107.918,670.391,107.918"/>
	
		<line clip-path="url(#SVGID_8_)" fill="none" stroke="#FFFFFF" stroke-width="13.0435" x1="415.559" y1="26.801" x2="427.687" y2="52.126"/>
</g>
<line fill="none" stroke="#FFFFFF" stroke-width="13.0435" x1="619.072" y1="218.866" x2="662.922" y2="227.548"/>
<line fill="none" stroke="#FFFFFF" stroke-width="13.0435" x1="404.557" y1="254.256" x2="559.663" y2="388.842"/>
<line fill="none" stroke="#FFFFFF" stroke-width="13.0435" x1="355.2" y1="326.205" x2="349.191" y2="375.53"/>
<g>
	<defs>
		<rect id="SVGID_23_" x="4.391" y="8.652" width="695.609" height="384.241"/>
	</defs>
	<clipPath id="SVGID_10_">
		<use xlink:href="#SVGID_23_"  overflow="visible"/>
	</clipPath>
	
		<line clip-path="url(#SVGID_10_)" fill="none" stroke="#FFFFFF" stroke-width="13.0435" x1="657.329" y1="350.419" x2="699.014" y2="354.76"/>
	
		<line clip-path="url(#SVGID_10_)" fill="none" stroke="#FFFFFF" stroke-width="13.0435" x1="695.582" y1="30.674" x2="643.801" y2="13.955"/>
	
		<line clip-path="url(#SVGID_10_)" fill="none" stroke="#FFFFFF" stroke-width="13.0435" x1="101.182" y1="343.967" x2="11.703" y2="388.045"/>
	
		<line clip-path="url(#SVGID_10_)" fill="none" stroke="#FFFFFF" stroke-width="13.0435" x1="300.829" y1="37.606" x2="281.909" y2="29.884"/>
</g>
<line fill="none" stroke="#FFFFFF" stroke-width="13.0435" x1="532.665" y1="161.745" x2="556.885" y2="51.994"/>
</svg>
