<?xml version="1.0" encoding="utf-8"?>
<!-- Generator: Adobe Illustrator 17.0.0, SVG Export Plug-In . SVG Version: 6.00 Build 0)  -->
<!DOCTYPE svg PUBLIC "-//W3C//DTD SVG 1.1//EN" "http://www.w3.org/Graphics/SVG/1.1/DTD/svg11.dtd">
<svg version="1.1" id="Layer_1" xmlns="http://www.w3.org/2000/svg" xmlns:xlink="http://www.w3.org/1999/xlink" x="0px" y="0px"
	 width="700px" height="400px" viewBox="0 0 700 400" enable-background="new 0 0 700 400" xml:space="preserve">
<g>
	<defs>
		<rect id="SVGID_1_" x="541.569" width="158.431" height="125.617"/>
	</defs>
	<clipPath id="SVGID_2_">
		<use xlink:href="#SVGID_1_"  overflow="visible"/>
	</clipPath>
	<path clip-path="url(#SVGID_2_)" fill="none" stroke="#FFE900" stroke-width="3.3072" d="M542.952,0.907
		c0,0,72.076,109.973,156.796,123.076"/>
</g>
<g>
	<defs>
		<rect id="SVGID_3_" x="358.025" y="52.322" width="245.197" height="309.363"/>
	</defs>
	<clipPath id="SVGID_4_">
		<use xlink:href="#SVGID_3_"  overflow="visible"/>
	</clipPath>
	<path clip-path="url(#SVGID_4_)" fill="#FFE900" d="M368.38,73.03c5.719,0,10.354-4.636,10.354-10.354
		c0-5.719-4.635-10.355-10.354-10.355c-5.719,0-10.354,4.636-10.354,10.355C358.026,68.394,362.661,73.03,368.38,73.03"/>
	<path clip-path="url(#SVGID_4_)" fill="#FFE900" d="M530.663,234.99c5.719,0,10.354-4.636,10.354-10.354
		c0-5.719-4.635-10.355-10.354-10.355s-10.354,4.636-10.354,10.355C520.309,230.354,524.944,234.99,530.663,234.99"/>
	<path clip-path="url(#SVGID_4_)" fill="none" stroke="#001E4F" stroke-width="20" d="M423.931,267.264
		c0,0-48.898-147.401,144.567-147.401"/>
	<path clip-path="url(#SVGID_4_)" fill="none" stroke="#001E4F" stroke-width="5" d="M601.345,307.183
		c0,0-89.901,102.27-176.4,19.967"/>
</g>
<line fill="none" stroke="#001E4F" stroke-width="20" x1="451.963" y1="244.856" x2="413.962" y2="269.258"/>
<g>
	<defs>
		<rect id="SVGID_5_" x="358.025" y="52.322" width="245.197" height="309.363"/>
	</defs>
	<clipPath id="SVGID_6_">
		<use xlink:href="#SVGID_5_"  overflow="visible"/>
	</clipPath>
	
		<line clip-path="url(#SVGID_6_)" fill="none" stroke="#001E4F" stroke-width="20" x1="388.016" y1="242.878" x2="424.686" y2="269.235"/>
</g>
<path fill="none" stroke="#001E4F" stroke-width="3" stroke-miterlimit="19.434" d="M86.302,173.63l5.597-3.992l4.524-16.078
	l-8.814,6.288L86.302,173.63z M117.113,194.734l-9.414,6.714l-5.556-17.821L117.113,194.734z M105.929,226.454l8.003-5.709
	l-3.792-11.94l13.224-9.433l10.063,7.468l8.004-5.709l-42.977-31.763l-8.632,6.157L105.929,226.454z"/>
<g>
	<defs>
		<rect id="SVGID_7_" x="44.802" y="-29.235" width="348.364" height="286.292"/>
	</defs>
	<clipPath id="SVGID_8_">
		<use xlink:href="#SVGID_7_"  overflow="visible"/>
	</clipPath>
	<path clip-path="url(#SVGID_8_)" fill="none" stroke="#001E4F" stroke-width="3" stroke-miterlimit="19.434" d="M174.134,177.804
		l6.543-4.667l-15.082-21.145l-17.359,12.382l4.417,6.192l10.816-7.714c0.696,1.624,1.131,3.007,1.306,4.147
		c0.174,1.14,0.141,2.429-0.099,3.865c-0.241,1.436-0.836,2.928-1.785,4.475c-0.95,1.548-2.127,2.823-3.533,3.826
		c-1.875,1.337-4.006,2.068-6.392,2.193c-2.386,0.124-4.701-0.509-6.944-1.901c-2.244-1.391-4.722-3.988-7.435-7.792
		c-3.87-5.425-5.543-9.896-5.018-13.412c0.525-3.516,2.346-6.386,5.465-8.61c2.632-1.877,5.343-2.614,8.133-2.211
		c1.95,0.295,4.092,1.297,6.426,3.004l4.881-6.826c-2.29-1.876-4.364-3.143-6.222-3.804c-2.89-1.039-5.926-1.321-9.109-0.845
		c-3.183,0.475-6.307,1.806-9.371,3.991c-3.353,2.392-5.956,5.405-7.81,9.039c-1.855,3.635-2.475,7.675-1.862,12.118
		c0.614,4.445,2.824,9.335,6.629,14.67c3.652,5.12,7.342,8.587,11.07,10.401c3.729,1.815,7.353,2.501,10.871,2.057
		c3.519-0.443,6.666-1.654,9.443-3.634c2.703-1.929,4.792-4.357,6.267-7.285c1.077-2.074,1.793-4.597,2.147-7.57L174.134,177.804z"
		/>
	<path clip-path="url(#SVGID_8_)" fill="none" stroke="#001E4F" stroke-width="3" stroke-miterlimit="19.434" d="M167.608,115.636
		l5.597-3.993l4.524-16.077l-8.815,6.287L167.608,115.636z M178.054,152.815c2.225,3.119,4.428,5.293,6.611,6.523
		c2.184,1.231,4.348,1.978,6.495,2.242c1.541,0.179,3.202,0.028,4.981-0.452c3.344-0.917,6.548-2.468,9.612-4.654
		c5.318-3.793,8.385-8.034,9.201-12.723c0.817-4.689-0.575-9.557-4.175-14.605l-18.862-26.444l-8.193,5.844l18.013,25.254
		c1.556,2.182,2.468,4.251,2.736,6.208c0.267,1.958,0.004,3.696-0.789,5.214c-0.794,1.518-1.993,2.849-3.597,3.994
		c-2.506,1.787-5.048,2.417-7.627,1.89c-2.579-0.526-4.993-2.367-7.243-5.522l-18.014-25.254l-8.166,5.825L178.054,152.815z"/>
	<path clip-path="url(#SVGID_8_)" fill="none" stroke="#001E4F" stroke-width="3" stroke-miterlimit="19.434" d="M222.415,130.189
		c2.267,1.157,4.235,1.915,5.906,2.274c2.586,0.576,5.258,0.594,8.015,0.056c2.757-0.539,5.55-1.818,8.38-3.837
		c2.992-2.134,5.237-4.592,6.735-7.373c1.497-2.782,2.079-5.645,1.747-8.589c-0.333-2.945-1.245-5.463-2.737-7.554
		c-1.414-1.983-3.245-3.587-5.492-4.812c-2.248-1.226-4.704-1.771-7.37-1.638c-2.665,0.133-6.088,1.025-10.269,2.674
		c-4.182,1.65-7.01,2.375-8.484,2.176c-1.493-0.186-2.651-0.856-3.474-2.01c-1.028-1.442-1.361-3.061-0.996-4.858
		c0.364-1.796,1.456-3.343,3.277-4.642c1.477-1.054,3.091-1.634,4.838-1.738c1.748-0.104,3.784,0.252,6.108,1.069l4.827-7.645
		c-1.92-0.86-3.614-1.406-5.084-1.636c-2.247-0.328-4.622-0.218-7.127,0.331c-2.505,0.549-4.983,1.698-7.435,3.447
		c-4.308,3.073-6.883,6.63-7.726,10.672c-0.844,4.042-0.024,7.802,2.457,11.281c2.315,3.245,5.491,5.086,9.529,5.523
		c3.23,0.335,7.574-0.534,13.032-2.605c4.014-1.502,6.855-2.115,8.522-1.836c1.65,0.292,2.931,1.078,3.844,2.358
		c1.042,1.46,1.341,3.157,0.898,5.091c-0.442,1.934-1.745,3.672-3.908,5.215c-1.803,1.286-3.662,1.987-5.579,2.103
		c-1.916,0.116-4.312-0.392-7.186-1.524L222.415,130.189z"/>
	<polygon clip-path="url(#SVGID_8_)" fill="none" stroke="#001E4F" stroke-width="3" stroke-miterlimit="19.434" points="
		239.792,79.283 251.392,71.009 275.828,105.267 283.939,99.481 259.503,65.223 271.157,56.911 266.085,49.799 234.72,72.172 	"/>
</g>
<g>
	<defs>
		<rect id="SVGID_9_" x="160.272" y="244.856" width="150.837" height="58.752"/>
	</defs>
	<clipPath id="SVGID_10_">
		<use xlink:href="#SVGID_9_"  overflow="visible"/>
	</clipPath>
	<path clip-path="url(#SVGID_10_)" fill="none" stroke="#FFE900" stroke-width="5.8185" d="M160.42,248.217
		c0,0,177.303-9.071,143.492,54.016"/>
</g>
<g>
	<defs>
		<rect id="SVGID_11_" x="-14.716" y="209.198" width="237.165" height="248.224"/>
	</defs>
	<clipPath id="SVGID_12_">
		<use xlink:href="#SVGID_11_"  overflow="visible"/>
	</clipPath>
	
		<line clip-path="url(#SVGID_12_)" fill="none" stroke="#001E4F" stroke-width="10" x1="-11.096" y1="212.647" x2="218.829" y2="453.973"/>
	<circle clip-path="url(#SVGID_12_)" fill="none" stroke="#FFE900" stroke-width="5" cx="39.993" cy="266.501" r="17.007"/>
</g>
<g>
	<defs>
		
			<rect id="SVGID_13_" x="63.202" y="10.649" transform="matrix(-0.6524 -0.7579 0.7579 -0.6524 61.116 216.886)" width="34.192" height="167.556"/>
	</defs>
	<clipPath id="SVGID_14_">
		<use xlink:href="#SVGID_13_"  overflow="visible"/>
	</clipPath>
	<path clip-path="url(#SVGID_14_)" fill="none" stroke="#001E4F" stroke-width="7.936" d="M26.205,158.478
		c0,0,127.601-184.039,110.539-101.084"/>
</g>
</svg>
