<?xml version="1.0" encoding="UTF-8" standalone="no"?>
<svg width="140px" height="126px" viewBox="0 0 140 126" version="1.1" xmlns="http://www.w3.org/2000/svg" xmlns:xlink="http://www.w3.org/1999/xlink" xmlns:sketch="http://www.bohemiancoding.com/sketch/ns">
    <!-- Generator: Sketch 3.3.3 (12072) - http://www.bohemiancoding.com/sketch -->
    <title>Artboard 1</title>
    <desc>Created with Sketch.</desc>
    <defs></defs>
    <g id="Page-1" stroke="none" stroke-width="1" fill="none" fill-rule="evenodd" sketch:type="MSPage">
        <g id="Artboard-1" sketch:type="MSArtboardGroup">
            <rect id="Rectangle-1" fill="#FFFFFF" sketch:type="MSShapeGroup" x="0" y="0" width="140" height="126"></rect>
            <path d="M50.7753,24.0641 L53.3863,24.0641 L53.3863,40.6331 L50.7753,40.6331 L50.7753,35.5641 L42.8273,35.5641 L42.8273,40.6331 L40.2213,40.6331 L40.2213,24.0641 L42.8273,24.0641 L42.8273,33.2521 L50.7753,33.2521 L50.7753,24.0641 Z" id="Fill-3" fill="#121312" sketch:type="MSShapeGroup"></path>
            <path d="M61.4576,29.4475 L58.7026,36.0015 L64.1636,36.0015 C64.1866,36.0015 61.4576,29.4475 61.4576,29.4475 L61.4576,29.4475 Z M56.7816,40.6335 L54.1446,40.6335 L61.4036,23.7225 L61.5526,23.7225 L68.8346,40.6335 L66.0846,40.6335 L65.1316,38.3185 L57.7246,38.3185 L56.7816,40.6335 Z" id="Fill-4" fill="#121312" sketch:type="MSShapeGroup"></path>
            <path d="M69.6057,23.7221 L69.7237,23.7221 L77.8127,33.0551 L85.8067,23.7221 L85.9307,23.7221 L85.9307,40.6331 L83.4727,40.6331 L83.4727,29.8861 L77.8127,36.6391 L77.6927,36.6391 L72.0657,29.8861 L72.0657,40.6331 L69.6057,40.6331 L69.6057,23.7221 Z" id="Fill-6" fill="#121312" sketch:type="MSShapeGroup"></path>
            <path d="M94.5523,38.3913 C96.8453,38.3913 97.6223,37.2443 97.6223,35.5443 C97.6223,33.8353 96.6973,32.6643 94.4323,32.6643 L90.9673,32.6643 L90.9673,38.3913 L94.5523,38.3913 Z M94.1163,30.5683 C95.9203,30.5683 96.5333,29.7393 96.5333,28.3773 C96.5333,27.1073 95.9463,26.3053 94.1163,26.3053 L90.9673,26.3053 L90.9673,30.5683 L94.1163,30.5683 Z M88.3823,24.0643 L94.2573,24.0643 C97.5763,24.0643 99.1153,25.9383 99.1153,28.3033 C99.1153,29.7683 98.3313,30.8413 97.1073,31.4503 C99.0623,32.0073 100.2763,33.4983 100.2763,35.6373 C100.2763,38.4443 98.5013,40.6333 94.6983,40.6333 L88.3823,40.6333 L88.3823,24.0643 Z" id="Fill-8" fill="#121312" sketch:type="MSShapeGroup"></path>
            <path d="M40.3338,52.3239 C40.3338,48.8139 37.9148,46.1819 34.4768,46.1819 C31.0378,46.1819 28.6288,48.8139 28.6288,52.3239 C28.6288,55.8339 31.0378,58.4629 34.4768,58.4629 C37.9148,58.4629 40.3338,55.8339 40.3338,52.3239 M25.9208,52.3239 C25.9208,47.4269 29.7288,43.8159 34.4768,43.8159 C39.2318,43.8159 43.0298,47.4269 43.0298,52.3239 C43.0298,57.2249 39.2318,60.8289 34.4768,60.8289 C29.7288,60.8289 25.9208,57.2249 25.9208,52.3239" id="Fill-10" fill="#121312" sketch:type="MSShapeGroup"></path>
            <path d="M48.7459,54.4199 C51.9339,54.4199 53.2329,52.9069 53.2329,50.3749 C53.2329,47.8629 51.9099,46.3519 48.7459,46.3519 L47.2059,46.3519 L47.2059,54.4199 L48.7459,54.4199 Z M55.9589,60.6069 L52.8639,60.6069 L50.0429,56.5829 C49.6759,56.6349 49.2579,56.6589 48.8459,56.6589 L47.2059,56.6589 L47.2059,60.6069 L44.6029,60.6069 L44.6029,44.0369 L48.8459,44.0369 C53.3969,44.0369 55.9079,46.5469 55.9079,50.3749 C55.9079,52.9319 54.7699,54.9069 52.5969,55.9059 L55.9589,60.6069 Z" id="Fill-12" fill="#121312" sketch:type="MSShapeGroup"></path>
            <path d="M56.6122,52.3239 C56.6122,47.4269 60.3612,43.8159 65.1142,43.8159 C68.1912,43.8159 70.0362,44.9129 71.4092,46.4469 L69.6052,48.1549 C68.6062,47.0599 67.4582,46.1819 65.0472,46.1819 C61.6782,46.1819 59.3182,48.8139 59.3182,52.3239 C59.3182,55.8339 61.7112,58.4629 65.4882,58.4629 C67.2922,58.4629 68.5522,58.0479 69.5052,57.4179 L69.5052,55.5439 L65.0682,55.5439 L65.0682,53.2269 L71.9172,53.2269 L71.9172,58.6619 C70.5252,59.8029 68.6062,60.8289 65.4882,60.8289 C60.3892,60.8289 56.6122,57.2249 56.6122,52.3239" id="Fill-14" fill="#121312" sketch:type="MSShapeGroup"></path>
            <path d="M79.4347,49.4233 L76.6697,55.9793 L82.1357,55.9793 C82.1637,55.9793 79.4347,49.4233 79.4347,49.4233 L79.4347,49.4233 Z M74.7487,60.6073 L72.1197,60.6073 L79.3787,43.6933 L79.5217,43.6933 L86.8117,60.6073 L84.0547,60.6073 L83.1087,58.2923 L75.6987,58.2923 L74.7487,60.6073 Z" id="Fill-16" fill="#121312" sketch:type="MSShapeGroup"></path>
            <path d="M91.7133,54.4199 C94.9083,54.4199 96.2023,52.9069 96.2023,50.3749 C96.2023,47.8629 94.8853,46.3519 91.7133,46.3519 L90.1763,46.3519 L90.1763,54.4199 L91.7133,54.4199 Z M98.9263,60.6069 L95.8363,60.6069 L93.0043,56.5829 C92.6463,56.6349 92.2253,56.6589 91.8103,56.6589 L90.1763,56.6589 L90.1763,60.6069 L87.5753,60.6069 L87.5753,44.0369 L91.8103,44.0369 C96.3743,44.0369 98.8803,46.5469 98.8803,50.3749 C98.8803,52.9319 97.7293,54.9069 95.5643,55.9059 L98.9263,60.6069 Z" id="Fill-18" fill="#121312" sketch:type="MSShapeGroup"></path>
            <path d="M106.6541,49.4233 L103.9071,55.9793 L109.3621,55.9793 C109.3911,55.9793 106.6541,49.4233 106.6541,49.4233 L106.6541,49.4233 Z M101.9801,60.6073 L99.3491,60.6073 L106.6081,43.6933 L106.7511,43.6933 L114.0441,60.6073 L111.2891,60.6073 L110.3391,58.2923 L102.9281,58.2923 L101.9801,60.6073 Z" id="Fill-20" fill="#121312" sketch:type="MSShapeGroup"></path>
            <path d="M35.8959,64.0112 L46.2299,64.0112 L46.2299,66.3242 L38.5039,66.3242 L38.5039,73.1992 L45.5479,73.1992 L45.5479,75.5152 L38.5039,75.5152 L38.5039,80.5862 L35.8959,80.5862 L35.8959,64.0112 Z" id="Fill-22" fill="#121312" sketch:type="MSShapeGroup"></path>
            <path d="M52.5356,69.3934 L49.7786,75.9564 L55.2416,75.9564 C55.2646,75.9564 52.5356,69.3934 52.5356,69.3934 L52.5356,69.3934 Z M47.8646,80.5864 L45.2226,80.5864 L52.4916,63.6694 L52.6376,63.6694 L59.9256,80.5864 L57.1656,80.5864 L56.2126,78.2704 L48.8096,78.2704 L47.8646,80.5864 Z" id="Fill-24" fill="#121312" sketch:type="MSShapeGroup"></path>
            <path d="M66.8486,78.3461 C69.1416,78.3461 69.9186,77.1961 69.9186,75.4891 C69.9186,73.7841 68.9906,72.6131 66.7286,72.6131 L63.2666,72.6131 L63.2666,78.3461 L66.8486,78.3461 Z M66.4126,70.5181 C68.2146,70.5181 68.8216,69.6911 68.8216,68.3251 C68.8216,67.0551 68.2376,66.2561 66.4126,66.2561 L63.2666,66.2561 L63.2666,70.5181 L66.4126,70.5181 Z M60.6786,64.0111 L66.5536,64.0111 C69.8696,64.0111 71.4096,65.8871 71.4096,68.2541 C71.4096,69.7131 70.6276,70.7881 69.4056,71.3991 C71.3556,71.9591 72.5776,73.4431 72.5776,75.5861 C72.5776,78.3901 70.7976,80.5861 66.9996,80.5861 L60.6786,80.5861 L60.6786,64.0111 Z" id="Fill-26" fill="#121312" sketch:type="MSShapeGroup"></path>
            <path d="M78.2048,74.3962 C81.3928,74.3962 82.6888,72.8842 82.6888,70.3462 C82.6888,67.8352 81.3718,66.3232 78.2048,66.3232 L76.6698,66.3232 L76.6698,74.3962 L78.2048,74.3962 Z M85.4198,80.5862 L82.3278,80.5862 L79.4938,76.5622 C79.1328,76.6142 78.7198,76.6342 78.2998,76.6342 L76.6698,76.6342 L76.6698,80.5862 L74.0588,80.5862 L74.0588,64.0112 L78.2998,64.0112 C82.8578,64.0112 85.3718,66.5222 85.3718,70.3462 C85.3718,72.9072 84.2238,74.8802 82.0538,75.8812 L85.4198,80.5862 Z" id="Fill-28" fill="#121312" sketch:type="MSShapeGroup"></path>
            <path d="M87.137,64.011 L89.751,64.011 L89.751,80.586 L87.137,80.586 L87.137,64.011 Z" id="Fill-30" fill="#121312" sketch:type="MSShapeGroup"></path>
            <path d="M101.2424,64.0112 L104.1944,64.0112 L98.3134,71.4462 L105.0734,80.5862 L101.8954,80.5862 L96.6174,73.4222 L94.7804,75.6592 L94.7804,80.5862 L92.1794,80.5862 L92.1794,64.0112 L94.7804,64.0112 L94.7804,72.2232 L101.2424,64.0112 Z" id="Fill-32" fill="#121312" sketch:type="MSShapeGroup"></path>
            <path d="M58.3136,83.9863 L61.1966,83.9863 L54.2446,93.6853 L61.5836,100.5573 L57.9476,100.5573 L51.6896,94.6863 L51.6896,100.5573 L49.0836,100.5573 L49.0836,83.9863 L51.6896,83.9863 L51.6896,93.2493 L58.3136,83.9863 Z" id="Fill-33" fill="#121312" sketch:type="MSShapeGroup"></path>
            <path d="M69.0215,89.3704 L66.2645,95.9274 L71.7275,95.9274 C71.7555,95.9274 69.0215,89.3704 69.0215,89.3704 L69.0215,89.3704 Z M64.3405,100.5564 L61.7115,100.5564 L68.9725,83.6484 L69.1215,83.6484 L76.4035,100.5564 L73.6515,100.5564 L72.6985,98.2464 L65.2905,98.2464 L64.3405,100.5564 Z" id="Fill-34" fill="#121312" sketch:type="MSShapeGroup"></path>
            <path d="M79.6063,89.6657 L79.6063,100.5567 L77.1643,100.5567 L77.1643,83.7437 L77.3613,83.7437 L87.9873,94.8827 L87.9873,83.9867 L90.4243,83.9867 L90.4243,100.8047 L90.2273,100.8047 L79.6063,89.6657 Z" id="Fill-35" fill="#121312" sketch:type="MSShapeGroup"></path>
            <path d="M64.0326,104.9531 L61.7986,104.9531 L61.7986,104.7271 L64.0226,104.7271 C64.8066,104.7271 65.1626,105.0281 65.1626,105.5651 C65.1626,105.8491 65.0496,106.1871 64.8346,106.5281 L63.0486,109.3471 L65.3476,109.3471 L65.3476,109.5721 L61.4676,109.5721 L61.4676,109.5181 L64.3326,104.9821 C64.2886,104.9671 64.1506,104.9531 64.0326,104.9531" id="Fill-36" fill="#121312" sketch:type="MSShapeGroup"></path>
            <path d="M68.0657,109.4205 C68.4137,109.4205 68.7547,109.3475 69.0447,109.2185 L69.0447,105.0915 C68.7547,104.9625 68.4137,104.8855 68.0657,104.8855 C67.7197,104.8855 67.3817,104.9625 67.0867,105.0915 L67.0867,109.2185 C67.3817,109.3475 67.7197,109.4205 68.0657,109.4205 M65.6827,107.1515 C65.6827,105.6915 66.7277,104.6695 68.0657,104.6695 C69.4057,104.6695 70.4617,105.6915 70.4617,107.1515 C70.4617,108.6085 69.4057,109.6385 68.0657,109.6385 C66.7277,109.6385 65.6827,108.6085 65.6827,107.1515" id="Fill-37" fill="#121312" sketch:type="MSShapeGroup"></path>
            <path d="M71.415,104.727 L72.773,104.727 L72.773,109.572 L71.415,109.572 L71.415,104.727 Z" id="Fill-38" fill="#121312" sketch:type="MSShapeGroup"></path>
            <path d="M76.1139,109.4205 C76.4729,109.4205 76.8009,109.3475 77.0899,109.2185 L77.0899,105.0915 C76.8009,104.9625 76.4729,104.8855 76.1139,104.8855 C75.7659,104.8855 75.4319,104.9625 75.1329,105.0915 L75.1329,109.2185 C75.4319,109.3475 75.7659,109.4205 76.1139,109.4205 M73.7259,107.1515 C73.7259,105.6915 74.7819,104.6695 76.1139,104.6695 C77.4569,104.6695 78.5049,105.6915 78.5049,107.1515 C78.5049,108.6085 77.4569,109.6385 76.1139,109.6385 C74.7819,109.6385 73.7259,108.6085 73.7259,107.1515" id="Fill-39" fill="#121312" sketch:type="MSShapeGroup"></path>
            <path d="M129.2819,116.7288 L129.2819,115.4798 L129.2819,116.7288 Z M100.3919,8.7398 L100.3919,11.2388 L128.0419,11.2388 L128.0419,115.4798 L11.9329,115.4798 L11.9329,11.2388 L39.5759,11.2388 L39.5759,8.7398 L9.4379,8.7398 L9.4379,117.9758 L130.5299,117.9758 L130.5299,116.7288 L130.5299,8.7398 L100.3919,8.7398 Z" id="Fill-40" fill="#121312" sketch:type="MSShapeGroup"></path>
            <path d="M125.7126,112.7598 L125.7126,113.2358 L125.7126,112.7598 Z M13.7936,113.7008 L126.1816,113.7008 L126.1816,113.2358 L126.1816,13.0108 L100.3916,13.0108 L100.3916,13.9508 L125.2356,13.9508 L125.2356,112.7598 L14.7286,112.7598 L14.7286,13.9508 L39.5756,13.9508 L39.5756,13.0108 L13.7936,13.0108 L13.7936,113.7008 Z" id="Fill-41" fill="#121312" sketch:type="MSShapeGroup"></path>
            <path d="M45.2509,6.1357 L46.4019,6.1357 L45.5329,7.6897 L44.7389,7.6897 L45.2509,6.1357 Z M44.6179,8.1367 L45.7099,8.1367 L45.7099,15.0777 L44.6179,15.0777 L44.6179,8.1367 Z" id="Fill-42" fill="#121312" sketch:type="MSShapeGroup"></path>
            <path d="M48.6614,13.2505 C48.9714,13.8645 49.5224,14.1925 50.2324,14.1925 C50.9624,14.1925 51.4564,13.8445 51.4564,13.2835 C51.4564,12.6245 50.9624,12.4065 50.3604,12.1275 L49.8784,11.9165 C48.8534,11.4635 48.1594,10.9315 48.1594,9.8535 C48.1594,8.7905 48.9484,8.0445 50.0884,8.0445 C50.9774,8.0445 51.6334,8.4035 52.0714,9.1355 L51.2394,9.6765 C50.9774,9.2275 50.6294,9.0065 50.1094,9.0065 C49.5554,9.0065 49.2194,9.3305 49.2194,9.8135 C49.2194,10.3645 49.5584,10.5765 50.3144,10.9135 L50.7984,11.1285 C51.8464,11.5985 52.5384,12.0765 52.5384,13.2505 C52.5384,14.5315 51.5594,15.1725 50.2474,15.1725 C49.0684,15.1725 48.2104,14.5985 47.7414,13.7085 L48.6614,13.2505 Z" id="Fill-43" fill="#121312" sketch:type="MSShapeGroup"></path>
            <path d="M54.7212,8.1368 L55.8182,8.1368 L55.8182,14.1058 L58.8752,14.1058 L58.8752,15.0778 L54.7212,15.0778 L54.7212,8.1368 Z" id="Fill-44" fill="#121312" sketch:type="MSShapeGroup"></path>
            <path d="M60.8554,8.1368 L65.2724,8.1368 L65.2724,9.1058 L61.9394,9.1058 L61.9394,11.9858 L64.8964,11.9858 L64.8964,12.9348 L61.9394,12.9348 L61.9394,14.1058 L65.4164,14.1058 L65.4164,15.0778 L60.8554,15.0778 L60.8554,8.1368 Z" id="Fill-45" fill="#121312" sketch:type="MSShapeGroup"></path>
            <path d="M68.6551,10.5185 L68.6551,15.0775 L67.6381,15.0775 L67.6381,8.0335 L67.7121,8.0335 L72.1711,12.7015 L72.1711,8.1365 L73.1881,8.1365 L73.1881,15.1785 L73.1061,15.1785 L68.6551,10.5185 Z" id="Fill-46" fill="#121312" sketch:type="MSShapeGroup"></path>
            <path d="M76.1267,13.2505 C76.4467,13.8645 76.9897,14.1925 77.6977,14.1925 C78.4377,14.1925 78.9247,13.8445 78.9247,13.2835 C78.9247,12.6245 78.4377,12.4065 77.8277,12.1275 L77.3517,11.9165 C76.3237,11.4635 75.6267,10.9315 75.6267,9.8535 C75.6267,8.7905 76.4167,8.0445 77.5667,8.0445 C78.4457,8.0445 79.1037,8.4035 79.5397,9.1355 L78.7197,9.6765 C78.4457,9.2275 78.0947,9.0065 77.5847,9.0065 C77.0237,9.0065 76.6907,9.3305 76.6907,9.8135 C76.6907,10.3645 77.0287,10.5765 77.7817,10.9135 L78.2607,11.1285 C79.3087,11.5985 80.0087,12.0765 80.0087,13.2505 C80.0087,14.5315 79.0247,15.1725 77.7157,15.1725 C76.5397,15.1725 75.6787,14.5985 75.2067,13.7085 L76.1267,13.2505 Z" id="Fill-47" fill="#121312" sketch:type="MSShapeGroup"></path>
            <path d="M85.984,8.1368 L87.227,8.1368 L84.772,11.2538 L87.588,15.0778 L86.266,15.0778 L84.052,12.0768 L83.288,13.0178 L83.288,15.0778 L82.194,15.0778 L82.194,8.1368 L83.288,8.1368 L83.288,11.5738 L85.984,8.1368 Z" id="Fill-48" fill="#121312" sketch:type="MSShapeGroup"></path>
            <path d="M92.2539,10.3942 L91.0979,13.1432 L93.3859,13.1432 L92.2539,10.3942 Z M90.2959,15.0772 L89.1889,15.0772 L92.2389,7.9902 L92.2999,7.9902 L95.3469,15.0772 L94.2009,15.0772 L93.7959,14.1062 L90.6939,14.1062 L90.2959,15.0772 Z" id="Fill-49" fill="#121312" sketch:type="MSShapeGroup"></path>
        </g>
    </g>
</svg>