<?xml version="1.0" encoding="UTF-8" standalone="no"?>
<svg width="112px" height="58px" viewBox="0 0 112 58" version="1.1" xmlns="http://www.w3.org/2000/svg" xmlns:xlink="http://www.w3.org/1999/xlink" xmlns:sketch="http://www.bohemiancoding.com/sketch/ns">
    <!-- Generator: Sketch 3.3.3 (12072) - http://www.bohemiancoding.com/sketch -->
    <title>World Class_logo</title>
    <desc>Created with Sketch.</desc>
    <defs></defs>
    <g id="Page-1" stroke="none" stroke-width="1" fill="none" fill-rule="evenodd" sketch:type="MSPage">
        <g id="World-Class_logo" sketch:type="MSLayerGroup">
            <path d="M108.196,14.821 L108.196,14.119 L109.281,14.119 C109.403,14.119 109.542,14.143 109.637,14.193 C109.755,14.242 109.85,14.319 109.897,14.419 C109.967,14.519 110.013,14.645 110.013,14.797 L109.708,14.821 C109.708,14.696 109.683,14.596 109.613,14.519 C109.568,14.444 109.448,14.419 109.306,14.419 L108.477,14.419 L108.477,14.821 L108.196,14.821 L108.196,14.821 Z M108.196,14.821 L108.196,16.557 L108.477,16.557 L108.477,15.525 L109.281,15.525 C109.424,15.525 109.517,15.55 109.568,15.625 C109.637,15.676 109.662,15.751 109.662,15.826 C109.683,15.902 109.683,16.004 109.683,16.179 C109.683,16.354 109.708,16.481 109.732,16.557 L110.087,16.557 L110.087,16.507 C110.04,16.481 110.013,16.456 109.992,16.381 C109.992,16.305 109.967,16.229 109.967,16.104 L109.967,15.751 C109.945,15.652 109.922,15.576 109.897,15.5 C109.85,15.425 109.78,15.375 109.708,15.349 C109.897,15.249 110.013,15.072 110.013,14.821 L109.708,14.821 C109.708,14.897 109.683,14.973 109.662,15.022 C109.613,15.072 109.568,15.148 109.517,15.174 C109.448,15.224 109.377,15.224 109.281,15.224 L108.477,15.224 L108.477,14.821 L108.196,14.821 L108.196,14.821 Z" id="Fill-1" fill="#A91F25" sketch:type="MSShapeGroup"></path>
            <path d="M109.037,13.354 C110.064,13.354 110.894,14.237 110.894,15.327 C110.894,16.418 110.064,17.301 109.037,17.301 C108.014,17.301 107.18,16.418 107.18,15.327 C107.18,14.237 108.014,13.354 109.037,13.354 L109.037,13.354 Z" id="Stroke-2" stroke="#A91F25" stroke-width="0.282" sketch:type="MSShapeGroup"></path>
            <path d="M55.955,0.883 C73.099,0.883 87.072,13.606 87.072,29.221 C87.072,44.831 73.099,57.554 55.955,57.554 C38.811,57.554 24.838,44.831 24.838,29.221 C24.838,13.606 38.811,0.883 55.955,0.883 L55.955,0.883 Z M55.813,18.206 C53.188,18.206 47.561,17.151 43.354,15.365 C41.224,19.439 39.735,25.399 39.735,29.07 L55.813,29.07 L55.813,18.206 L55.813,18.206 Z M55.813,40.208 C53.188,40.208 47.561,41.235 43.354,42.997 C41.224,38.999 39.735,33.145 39.735,29.573 L55.813,29.573 L55.813,40.208 L55.813,40.208 Z M56.312,18.206 C58.957,18.206 64.538,17.151 68.77,15.365 C70.899,19.439 72.389,25.399 72.389,29.07 L56.312,29.07 L56.312,18.206 L56.312,18.206 Z M56.312,40.208 C58.957,40.208 64.538,41.235 68.77,42.997 C70.899,38.999 72.389,33.145 72.389,29.573 L56.312,29.573 L56.312,40.208 L56.312,40.208 Z M50.422,5.131 C47.514,8.275 45.741,10.438 43.588,14.887 C46.309,16.069 52.813,17.73 55.813,17.73 L55.813,1.361 C53.828,1.612 51.983,3.473 50.422,5.131 L50.422,5.131 Z M50.422,53.155 C47.514,50.036 45.741,47.923 43.588,43.476 C46.309,42.341 52.813,40.687 55.813,40.687 L55.813,56.851 C53.828,56.624 51.983,54.812 50.422,53.155 L50.422,53.155 Z M61.678,5.131 C64.611,8.275 66.36,10.438 68.514,14.887 C65.816,16.069 59.313,17.73 56.312,17.73 L56.312,1.361 C58.271,1.612 60.143,3.473 61.678,5.131 L61.678,5.131 Z M61.678,53.155 C64.611,50.036 66.36,47.923 68.514,43.476 C65.816,42.341 59.313,40.687 56.312,40.687 L56.312,56.851 C58.271,56.624 60.143,54.812 61.678,53.155 L61.678,53.155 Z M54.418,1.337 C48.909,1.487 39.829,4.755 34.791,9.356 C36.662,11.091 39.615,13.204 43.139,14.587 C45.526,9.759 51.274,2.266 54.418,1.337 L54.418,1.337 Z M54.418,56.923 C48.909,56.747 39.829,53.532 34.791,48.954 C36.662,47.22 39.615,45.185 43.139,43.802 C45.526,48.552 51.274,55.97 54.418,56.923 L54.418,56.923 Z M57.706,1.337 C63.214,1.487 72.295,4.755 77.308,9.356 C75.463,11.091 72.507,13.204 68.984,14.587 C66.551,9.759 60.85,2.266 57.706,1.337 L57.706,1.337 Z M57.706,56.923 C63.214,56.747 72.295,53.532 77.308,48.954 C75.463,47.22 72.507,45.185 68.984,43.802 C66.551,48.552 60.85,55.97 57.706,56.923 L57.706,56.923 Z M42.975,15.063 C39.995,13.632 37.299,12.273 34.532,9.709 C30.251,12.852 25.478,19.615 25.501,29.07 L39.284,29.07 C39.521,23.84 40.939,18.986 42.975,15.063 L42.975,15.063 Z M42.975,43.323 C39.995,44.683 37.299,46.04 34.532,48.505 C30.251,45.46 25.478,38.849 25.501,29.573 L39.284,29.573 C39.521,34.729 40.939,39.45 42.975,43.323 L42.975,43.323 Z M69.128,15.063 C72.105,13.632 74.778,12.273 77.592,9.709 C81.872,12.852 86.669,19.615 86.624,29.07 L72.837,29.07 C72.602,23.84 71.137,18.986 69.128,15.063 L69.128,15.063 Z M69.128,43.323 C72.105,44.683 74.778,46.04 77.592,48.505 C81.872,45.46 86.669,38.849 86.624,29.573 L72.837,29.573 C72.602,34.729 71.137,39.45 69.128,43.323 L69.128,43.323 Z" id="Fill-3" fill="#A91F25" sketch:type="MSShapeGroup"></path>
            <path d="M53.215,9.231 L53.023,9.231 L53.094,9.456 L52.668,9.608 L52.454,9.356 L52.268,9.407 L52.29,10.009 L53.424,10.009 L53.922,9.959 L54.276,10.211 L54.727,10.739 L56.333,11.192 L57.112,10.839 L57.563,10.338 L58.391,10.136 L58.841,9.483 L60.022,9.004 L60.448,8.627 L60.639,8.149 L60.639,7.898 L60.897,7.873 L60.897,7.623 L61.086,7.647 L61.086,7.395 L61.321,7.27 L61.441,6.818 L61.111,6.942 L61.301,6.691 L61.321,6.49 L61.135,6.441 L61.205,6.213 L61.321,5.836 C61.063,5.811 61.016,5.661 60.756,5.609 L60.542,5.284 L60.259,5.333 L60.33,4.856 L60.189,4.605 L60.022,4.655 L59.811,4.529 L59.951,4.252 L60.402,3.825 L59.83,4.101 L59.502,4.403 L59.078,4.15 L58.982,3.6 L58.51,3.6 L58.486,4.202 L58.061,4.504 L57.941,4.279 L57.776,4.378 L57.611,4.729 L57.377,4.856 L57.09,4.403 L56.807,4.529 L56.974,5.03 L56.903,5.41 L56.736,5.007 L56.381,4.403 L56.074,4.354 L55.979,4.605 L55.72,4.629 L55.623,4.881 L55.672,5.359 L55.459,5.083 L55.011,4.529 L54.773,4.605 L54.866,5.661 L54.655,5.836 C54.489,5.735 54.606,5.609 54.418,5.534 L54.206,5.735 L54.206,6.136 L54.062,6.088 L54.041,6.515 L53.899,6.136 L53.66,5.963 L53.851,5.712 L53.473,5.359 L53.806,5.485 C53.922,5.131 53.591,5.359 53.851,5.007 L53.66,4.881 L53.851,4.78 L53.78,4.655 L53.568,4.655 L53.542,4.328 L53.26,4.101 L53.117,4.101 L52.905,3.572 L52.692,3.649 L52.503,3.6 L52.29,3.624 L52.173,3.876 L52.29,4.076 L52.646,3.9 L52.857,4.202 L52.551,4.101 L52.386,4.202 L52.978,4.729 L52.905,5.157 L52.692,5.03 L52.646,4.755 L52.454,4.605 L52.386,4.78 L52.29,4.479 L51.96,4.202 L51.818,4.328 L51.937,4.504 L51.628,4.479 L51.557,4.629 L51.841,4.881 L51.441,4.881 L51.461,5.083 L51.913,5.257 L51.863,5.485 L51.7,5.359 L51.274,5.107 L51.202,5.333 L51.511,5.534 L51.392,5.634 L51.37,5.735 L51.036,5.485 L50.682,5.836 L50.872,5.987 L51.486,6.063 L52.29,5.661 L52.503,5.836 L53.023,5.836 L52.857,5.987 L53.023,6.088 L53.308,6.19 L52.813,6.49 L52.646,6.691 L52.978,6.867 L53.354,6.768 L53.308,7.119 L52.786,6.969 L52.526,7.119 L52.313,6.991 L51.747,7.219 L51.345,7.093 L51.086,7.219 L51.202,7.721 L51.511,7.721 L51.7,7.623 C52.077,7.772 52.268,7.748 52.668,7.598 C52.857,7.822 52.928,8.025 53.023,8.326 L53.188,8.351 L53.023,8.603 L53.094,8.878 L53.447,8.627 L53.215,8.904 L53.142,9.081 L53.215,9.231" id="Fill-4" fill="#A91F25" sketch:type="MSShapeGroup"></path>
            <path d="M0.648,28.14 L0.839,13.329 L5.969,13.254 L5.261,26.555 L7.907,13.23 L13.746,13.23 L13.086,26.077 L16.325,13.23 L20.724,13.254 L16.938,28.14 L9.231,28.14 L9.301,24.87 L8.568,28.14 L0.648,28.14" id="Fill-5" fill="#A91F25" sketch:type="MSShapeGroup"></path>
            <path d="M18.217,28.14 L19.188,21.879 C19.659,19.464 21.054,18.182 22.495,17.931 C24.104,17.68 25.877,17.805 27.724,18.006 C29.875,18.711 29.757,20.394 29.662,22.129 L28.716,28.14 L24.01,28.14 L25.026,21.853 C25.074,21.477 24.813,21.15 24.412,21.15 C24.01,21.15 23.725,21.477 23.608,21.828 L22.591,28.14 L18.217,28.14" id="Fill-6" fill="#A91F25" sketch:type="MSShapeGroup"></path>
            <path d="M29.612,28.14 L31.151,17.981 L35.645,17.931 L35.478,19.011 C36.472,17.805 40.278,16.471 40.516,20.445 L39.709,25.926 L36.045,25.977 L36.566,22.179 C36.566,21.375 35.406,20.872 35.056,22.129 L34.177,28.14 L29.612,28.14" id="Fill-7" fill="#A91F25" sketch:type="MSShapeGroup"></path>
            <path d="M39.925,28.14 L42.265,13.23 L47.276,13.23 L44.865,28.14 L39.925,28.14" id="Fill-8" fill="#A91F25" sketch:type="MSShapeGroup"></path>
            <path d="M45.551,28.14 L46.615,21.477 C47.349,16.975 51.677,16.27 52.882,18.861 L53.687,13.254 L58.012,13.23 L55.955,28.14 L51.319,28.14 L52.219,22.078 C52.313,21.677 52.03,21.4 51.628,21.4 C51.202,21.4 50.872,21.677 50.801,22.078 L49.877,28.14 L45.551,28.14" id="Fill-9" fill="#A91F25" sketch:type="MSShapeGroup"></path>
            <path d="M59.313,28.14 L61.135,16.221 C61.584,14.839 62.86,13.078 65.083,12.525 C66.596,12.4 68.417,12.223 70.263,12.576 C72.178,12.901 73.173,13.404 73.29,16.221 L72.58,21.249 L67.471,21.249 L68.038,17.73 C68.345,16.245 66.551,16.069 66.17,17.604 L64.564,28.14 L59.313,28.14" id="Fill-10" fill="#A91F25" sketch:type="MSShapeGroup"></path>
            <path d="M66.36,28.14 L66.431,27.611 L71.584,27.611 L71.492,28.14 L66.36,28.14" id="Fill-11" fill="#A91F25" sketch:type="MSShapeGroup"></path>
            <path d="M72.059,28.14 L74.351,13.23 L79.294,13.23 L77.025,28.14 L72.059,28.14" id="Fill-12" fill="#A91F25" sketch:type="MSShapeGroup"></path>
            <path d="M78.253,28.114 C80.214,25.926 83.858,26.102 84.095,24.846 L84.496,22.229 C84.496,20.947 83.221,20.822 82.911,22.078 L82.652,24.568 L78.134,24.493 C78.253,23.461 78.349,22.431 78.512,21.35 C78.868,19.112 80.877,18.082 82.416,17.805 C83.858,17.503 85.678,17.503 87.192,18.056 C89.745,18.734 89.271,20.872 89.178,21.802 L88.16,28.14 L78.253,28.114" id="Fill-13" fill="#A91F25" sketch:type="MSShapeGroup"></path>
            <path d="M90.857,28.14 C90.169,27.737 89.178,27.108 89.224,25.448 L89.816,21.124 C90.146,18.935 92.111,17.931 93.647,17.88 C95.253,17.73 97.217,17.805 98.612,18.231 C99.395,18.585 100.151,19.515 100.101,21.074 L99.559,24.694 L95.16,24.493 L95.421,22.431 C95.658,20.344 94.072,20.622 93.978,22.38 L93.672,24.317 C93.504,25.825 96.746,26.43 98.138,28.14 L90.857,28.14" id="Fill-14" fill="#A91F25" sketch:type="MSShapeGroup"></path>
            <path d="M101.686,28.14 C101,27.737 99.985,27.108 100.079,25.448 L100.67,21.124 C100.953,18.935 102.94,17.931 104.453,17.88 C106.063,17.73 108.07,17.805 109.418,18.231 C110.223,18.585 110.956,19.515 110.929,21.074 L110.411,24.694 L105.944,24.493 L106.249,22.431 C106.488,20.344 104.855,20.622 104.736,22.38 L104.476,24.317 C104.36,25.825 107.573,26.43 108.946,28.14 L101.686,28.14" id="Fill-15" fill="#A91F25" sketch:type="MSShapeGroup"></path>
            <path d="M0.602,31.587 L0.648,28.14 L8.568,28.14 L7.791,31.587 L0.602,31.587" id="Fill-16" fill="#A91F25" sketch:type="MSShapeGroup"></path>
            <path d="M9.16,31.587 L9.231,28.14 L16.938,28.14 L16.064,31.587 L9.16,31.587" id="Fill-17" fill="#A91F25" sketch:type="MSShapeGroup"></path>
            <path d="M17.695,31.587 L18.217,28.14 L22.591,28.14 L22.047,31.587 L17.695,31.587" id="Fill-18" fill="#A91F25" sketch:type="MSShapeGroup"></path>
            <path d="M23.465,31.587 L24.01,28.14 L28.716,28.14 L28.195,31.587 L23.465,31.587" id="Fill-19" fill="#A91F25" sketch:type="MSShapeGroup"></path>
            <path d="M29.094,31.587 L29.612,28.14 L34.177,28.14 L33.657,31.587 L29.094,31.587" id="Fill-20" fill="#A91F25" sketch:type="MSShapeGroup"></path>
            <path d="M39.403,31.587 L39.925,28.14 L44.865,28.14 L44.322,31.587 L39.403,31.587" id="Fill-21" fill="#A91F25" sketch:type="MSShapeGroup"></path>
            <path d="M45.008,31.587 L45.551,28.14 L49.877,28.14 L49.357,31.587 L45.008,31.587" id="Fill-22" fill="#A91F25" sketch:type="MSShapeGroup"></path>
            <path d="M50.801,31.587 L51.319,28.14 L55.955,28.14 L55.482,31.587 L50.801,31.587" id="Fill-23" fill="#A91F25" sketch:type="MSShapeGroup"></path>
            <path d="M58.793,31.587 L59.313,28.14 L64.564,28.14 L64.043,31.587 L58.793,31.587" id="Fill-24" fill="#A91F25" sketch:type="MSShapeGroup"></path>
            <path d="M65.838,31.587 L66.36,28.14 L71.492,28.14 L70.948,31.587 L65.838,31.587" id="Fill-25" fill="#A91F25" sketch:type="MSShapeGroup"></path>
            <path d="M71.538,31.587 L72.059,28.14 L77.025,28.14 L76.503,31.587 L71.538,31.587" id="Fill-26" fill="#A91F25" sketch:type="MSShapeGroup"></path>
            <path d="M76.954,31.587 L77.069,30.757 C77.238,29.623 77.663,28.768 78.253,28.114 L88.16,28.14 L87.595,31.587 L83.005,31.587 L83.336,28.969 C82.911,29.448 81.896,29.497 81.589,30.228 L81.421,31.587 L76.954,31.587" id="Fill-27" fill="#A91F25" sketch:type="MSShapeGroup"></path>
            <path d="M88.256,31.587 L88.349,30.931 L92.678,30.931 L92.584,31.587 L88.256,31.587" id="Fill-28" fill="#A91F25" sketch:type="MSShapeGroup"></path>
            <path d="M93.978,31.587 L94.072,30.757 C94.237,29.623 91.969,29.096 91.044,28.239 C90.998,28.215 90.928,28.165 90.857,28.14 L98.138,28.14 C98.566,28.692 98.828,29.347 98.731,30.179 L98.542,31.587 L93.978,31.587" id="Fill-29" fill="#A91F25" sketch:type="MSShapeGroup"></path>
            <path d="M99.062,31.587 L99.156,30.931 L103.485,30.931 L103.366,31.587 L99.062,31.587" id="Fill-30" fill="#A91F25" sketch:type="MSShapeGroup"></path>
            <path d="M104.736,31.587 L104.83,30.757 C105.043,29.623 102.797,29.096 101.852,28.239 C101.804,28.215 101.733,28.165 101.686,28.14 L108.946,28.14 C109.395,28.692 109.655,29.347 109.538,30.179 L109.347,31.587 L104.736,31.587" id="Fill-31" fill="#A91F25" sketch:type="MSShapeGroup"></path>
            <path d="M0.602,31.587 L0.509,38.372 L6.23,38.423 L7.791,31.587 L0.602,31.587" id="Fill-32" fill="#A91F25" sketch:type="MSShapeGroup"></path>
            <path d="M9.16,31.587 L9.02,38.372 L14.317,38.423 L16.064,31.587 L9.16,31.587" id="Fill-33" fill="#A91F25" sketch:type="MSShapeGroup"></path>
            <path d="M17.695,31.587 L17.249,34.552 C17.058,36.636 17.556,37.995 19.991,38.546 C21.361,38.626 22.78,38.626 24.178,38.423 C25.784,38.067 27.084,37.065 27.628,35.206 L28.195,31.587 L23.465,31.587 L23.016,34.376 C22.945,34.806 22.591,35.083 22.213,35.083 C21.764,35.083 21.503,34.806 21.598,34.376 L22.047,31.587 L17.695,31.587" id="Fill-34" fill="#A91F25" sketch:type="MSShapeGroup"></path>
            <path d="M29.094,31.587 L28.078,38.372 L32.664,38.372 L33.657,31.587 L29.094,31.587" id="Fill-35" fill="#A91F25" sketch:type="MSShapeGroup"></path>
            <path d="M39.403,31.587 L38.339,38.349 L43.235,38.349 L44.322,31.587 L39.403,31.587" id="Fill-36" fill="#A91F25" sketch:type="MSShapeGroup"></path>
            <path d="M45.008,31.587 L44.393,35.458 C44.156,39.45 48.223,39.2 49.927,37.415 L50.327,38.372 L54.537,38.349 L55.482,31.587 L50.801,31.587 L50.447,33.976 C50.4,34.376 50.044,34.63 49.618,34.63 C49.216,34.63 48.932,34.351 49.003,33.976 L49.357,31.587 L45.008,31.587" id="Fill-37" fill="#A91F25" sketch:type="MSShapeGroup"></path>
            <path d="M58.793,31.587 L58.391,34.202 C58.155,36.337 59.977,37.743 61.111,37.995 C63.428,38.372 65.46,38.321 67.495,38.067 C68.748,37.669 70.192,36.991 70.499,34.503 L70.948,31.587 L65.838,31.587 L65.651,32.892 C65.651,34.704 63.592,34.503 63.829,32.968 L64.043,31.587 L58.793,31.587" id="Fill-38" fill="#A91F25" sketch:type="MSShapeGroup"></path>
            <path d="M71.538,31.587 L70.499,38.321 L75.463,38.321 L76.503,31.587 L71.538,31.587" id="Fill-39" fill="#A91F25" sketch:type="MSShapeGroup"></path>
            <path d="M76.954,31.587 L76.48,34.979 C76.245,37.995 77.637,38.046 78.631,38.349 C80.169,38.349 80.877,38.067 81.657,37.241 C81.657,37.54 82.06,38.067 82.06,38.372 L86.506,38.372 L87.595,31.587 L83.005,31.587 L82.771,33.497 C82.605,34.604 81.115,34.351 81.185,33.37 L81.421,31.587 L76.954,31.587" id="Fill-40" fill="#A91F25" sketch:type="MSShapeGroup"></path>
            <path d="M88.256,31.587 L87.57,36.489 C87.57,37.091 88.634,38.196 89.864,38.247 C91.26,38.597 92.937,38.546 94.806,38.321 C97.147,37.919 97.878,36.991 98.117,34.806 L98.542,31.587 L93.978,31.587 L93.672,33.976 C93.315,35.358 92.157,35.358 92.205,34.101 L92.584,31.587 L88.256,31.587" id="Fill-41" fill="#A91F25" sketch:type="MSShapeGroup"></path>
            <path d="M99.062,31.587 L98.424,36.489 C98.424,37.091 99.487,38.196 100.67,38.247 C102.017,38.597 103.766,38.546 105.637,38.321 C107.952,37.919 108.71,36.991 108.901,34.806 L109.347,31.587 L104.736,31.587 L104.476,33.976 C104.121,35.358 102.963,35.358 102.963,34.101 L103.366,31.587 L99.062,31.587" id="Fill-42" fill="#A91F25" sketch:type="MSShapeGroup"></path>
            <path d="M20.937,48.806 C23.205,45.962 25.478,43.097 27.745,40.208 L31.459,40.208 C29.427,43.097 27.368,45.962 25.311,48.806 L20.937,48.806" id="Fill-43" fill="#A91F25" sketch:type="MSShapeGroup"></path>
            <path d="M27.487,48.806 C28.881,46.741 30.251,44.683 31.648,42.671 C32.996,41.866 34.343,41.06 35.716,40.208 L39.829,40.208 C40.207,41.06 40.634,41.866 41.058,42.671 C40.398,44.054 39.735,45.435 39.049,46.817 L35.101,46.817 C35.716,45.685 36.353,44.554 36.99,43.423 L35.126,43.423 L31.908,48.806 L27.487,48.806" id="Fill-44" fill="#A91F25" sketch:type="MSShapeGroup"></path>
            <path d="M39.947,48.806 L43.754,40.208 L50.563,40.208 C50.28,41.284 49.947,42.341 49.618,43.423 L46.263,43.423 L45.008,46.792 L48.034,46.792 L47.394,48.806 L39.947,48.806" id="Fill-45" fill="#A91F25" sketch:type="MSShapeGroup"></path>
            <path d="M49.737,48.806 C50.492,45.937 51.251,43.048 52.03,40.208 L55.695,40.208 C55.177,43.048 54.631,45.937 54.112,48.806 L49.737,48.806" id="Fill-46" fill="#A91F25" sketch:type="MSShapeGroup"></path>
            <path d="M58.887,48.806 L60.897,40.208 L66.17,40.208 L68.323,48.806 L64.254,48.806 L63.713,43.976 L63.355,43.976 L62.789,48.806 L58.887,48.806" id="Fill-47" fill="#A91F25" sketch:type="MSShapeGroup"></path>
            <path d="M70.38,48.806 L69.316,40.208 L72.414,40.208 L76.929,48.478 L74.896,40.208 L78.396,40.208 L81.164,48.806 L70.38,48.806" id="Fill-48" fill="#A91F25" sketch:type="MSShapeGroup"></path>
            <path d="M83.336,48.806 L80.214,40.208 L86.696,40.208 L90.548,42.671 L94.002,48.806 L89.534,48.806 L86.957,43.423 L85.322,43.423 L87.737,48.806 L83.336,48.806" id="Fill-49" fill="#A91F25" sketch:type="MSShapeGroup"></path>
            <path d="M20.937,48.806 C18.668,51.597 16.42,54.485 14.127,57.325 L19.211,57.325 C21.268,54.485 23.302,51.597 25.311,48.806 L20.937,48.806" id="Fill-50" fill="#A91F25" sketch:type="MSShapeGroup"></path>
            <path d="M27.487,48.806 C26.115,50.841 24.72,52.878 23.302,54.915 C23.962,55.716 24.603,56.497 25.311,57.325 L30.701,57.325 C32.216,56.497 33.729,55.716 35.171,54.915 C35.597,54.108 35.975,53.304 36.353,52.476 C36.754,51.694 37.156,50.915 37.536,50.064 L33.255,50.064 C32.452,51.444 31.719,52.8 30.987,54.185 L28.692,54.185 L31.908,48.806 L27.487,48.806" id="Fill-51" fill="#A91F25" sketch:type="MSShapeGroup"></path>
            <path d="M39.947,48.806 L36.19,57.325 L45.718,57.325 L46.664,54.185 L42.288,54.185 L43.849,49.911 L47.041,49.911 L47.394,48.806 L39.947,48.806" id="Fill-52" fill="#A91F25" sketch:type="MSShapeGroup"></path>
            <path d="M49.737,48.806 C48.979,51.667 48.248,54.513 47.489,57.325 L57.112,57.325 C57.234,56.298 57.35,55.241 57.445,54.185 L53.142,54.185 C53.447,52.398 53.78,50.589 54.112,48.806 L49.737,48.806" id="Fill-53" fill="#A91F25" sketch:type="MSShapeGroup"></path>
            <path d="M58.887,48.806 L57.377,55.188 L57.112,57.325 L61.654,57.325 C61.844,56.298 62.032,55.241 62.195,54.185 L64.941,54.185 C65.106,55.241 65.247,56.298 65.486,57.325 L70.472,57.325 L68.323,48.806 L64.254,48.806 L64.516,51.067 L62.529,51.067 L62.789,48.806 L58.887,48.806" id="Fill-54" fill="#A91F25" sketch:type="MSShapeGroup"></path>
            <path d="M70.38,48.806 L71.421,57.325 L76.245,57.325 L74.541,49.005 L79.672,57.325 L83.905,57.325 L81.164,48.806 L70.38,48.806" id="Fill-55" fill="#A91F25" sketch:type="MSShapeGroup"></path>
            <path d="M83.336,48.806 L86.411,57.325 L95.514,57.325 L97.43,54.915 L94.002,48.806 L89.534,48.806 L92.134,54.185 L90.125,54.185 L87.737,48.806 L83.336,48.806" id="Fill-56" fill="#A91F25" sketch:type="MSShapeGroup"></path>
            <path d="M108.196,14.821 L108.196,14.119 L109.281,14.119 C109.403,14.119 109.542,14.143 109.637,14.193 C109.755,14.242 109.85,14.319 109.897,14.419 C109.967,14.519 110.013,14.645 110.013,14.797 L109.708,14.821 C109.708,14.696 109.683,14.596 109.613,14.519 C109.568,14.444 109.448,14.419 109.306,14.419 L108.477,14.419 L108.477,14.821 L108.196,14.821 L108.196,14.821 Z M108.196,14.821 L108.196,16.557 L108.477,16.557 L108.477,15.525 L109.281,15.525 C109.424,15.525 109.517,15.55 109.568,15.625 C109.637,15.676 109.662,15.751 109.662,15.826 C109.683,15.902 109.683,16.004 109.683,16.179 C109.683,16.354 109.708,16.481 109.732,16.557 L110.087,16.557 L110.087,16.507 C110.04,16.481 110.013,16.456 109.992,16.381 C109.992,16.305 109.967,16.229 109.967,16.104 L109.967,15.751 C109.945,15.652 109.922,15.576 109.897,15.5 C109.85,15.425 109.78,15.375 109.708,15.349 C109.897,15.249 110.013,15.072 110.013,14.821 L109.708,14.821 C109.708,14.897 109.683,14.973 109.662,15.022 C109.613,15.072 109.568,15.148 109.517,15.174 C109.448,15.224 109.377,15.224 109.281,15.224 L108.477,15.224 L108.477,14.821 L108.196,14.821 L108.196,14.821 Z" id="Fill-57" fill="#A91F25" sketch:type="MSShapeGroup"></path>
            <path d="M109.037,13.354 C110.064,13.354 110.894,14.237 110.894,15.327 C110.894,16.418 110.064,17.301 109.037,17.301 C108.014,17.301 107.18,16.418 107.18,15.327 C107.18,14.237 108.014,13.354 109.037,13.354 L109.037,13.354 Z" id="Stroke-58" stroke="#A91F25" stroke-width="0.282" sketch:type="MSShapeGroup"></path>
            <path d="M55.955,0.883 C73.099,0.883 87.072,13.606 87.072,29.221 C87.072,44.831 73.099,57.554 55.955,57.554 C38.811,57.554 24.838,44.831 24.838,29.221 C24.838,13.606 38.811,0.883 55.955,0.883 L55.955,0.883 Z M55.813,18.206 C53.188,18.206 47.561,17.151 43.354,15.365 C41.224,19.439 39.735,25.399 39.735,29.07 L55.813,29.07 L55.813,18.206 L55.813,18.206 Z M55.813,40.208 C53.188,40.208 47.561,41.235 43.354,42.997 C41.224,38.999 39.735,33.145 39.735,29.573 L55.813,29.573 L55.813,40.208 L55.813,40.208 Z M56.312,18.206 C58.957,18.206 64.538,17.151 68.77,15.365 C70.899,19.439 72.389,25.399 72.389,29.07 L56.312,29.07 L56.312,18.206 L56.312,18.206 Z M56.312,40.208 C58.957,40.208 64.538,41.235 68.77,42.997 C70.899,38.999 72.389,33.145 72.389,29.573 L56.312,29.573 L56.312,40.208 L56.312,40.208 Z M50.422,5.131 C47.514,8.275 45.741,10.438 43.588,14.887 C46.309,16.069 52.813,17.73 55.813,17.73 L55.813,1.361 C53.828,1.612 51.983,3.473 50.422,5.131 L50.422,5.131 Z M50.422,53.155 C47.514,50.036 45.741,47.923 43.588,43.476 C46.309,42.341 52.813,40.687 55.813,40.687 L55.813,56.851 C53.828,56.624 51.983,54.812 50.422,53.155 L50.422,53.155 Z M61.678,5.131 C64.611,8.275 66.36,10.438 68.514,14.887 C65.816,16.069 59.313,17.73 56.312,17.73 L56.312,1.361 C58.271,1.612 60.143,3.473 61.678,5.131 L61.678,5.131 Z M61.678,53.155 C64.611,50.036 66.36,47.923 68.514,43.476 C65.816,42.341 59.313,40.687 56.312,40.687 L56.312,56.851 C58.271,56.624 60.143,54.812 61.678,53.155 L61.678,53.155 Z M54.418,1.337 C48.909,1.487 39.829,4.755 34.791,9.356 C36.662,11.091 39.615,13.204 43.139,14.587 C45.526,9.759 51.274,2.266 54.418,1.337 L54.418,1.337 Z M54.418,56.923 C48.909,56.747 39.829,53.532 34.791,48.954 C36.662,47.22 39.615,45.185 43.139,43.802 C45.526,48.552 51.274,55.97 54.418,56.923 L54.418,56.923 Z M57.706,1.337 C63.214,1.487 72.295,4.755 77.308,9.356 C75.463,11.091 72.507,13.204 68.984,14.587 C66.551,9.759 60.85,2.266 57.706,1.337 L57.706,1.337 Z M57.706,56.923 C63.214,56.747 72.295,53.532 77.308,48.954 C75.463,47.22 72.507,45.185 68.984,43.802 C66.551,48.552 60.85,55.97 57.706,56.923 L57.706,56.923 Z M42.975,15.063 C39.995,13.632 37.299,12.273 34.532,9.709 C30.251,12.852 25.478,19.615 25.501,29.07 L39.284,29.07 C39.521,23.84 40.939,18.986 42.975,15.063 L42.975,15.063 Z M42.975,43.323 C39.995,44.683 37.299,46.04 34.532,48.505 C30.251,45.46 25.478,38.849 25.501,29.573 L39.284,29.573 C39.521,34.729 40.939,39.45 42.975,43.323 L42.975,43.323 Z M69.128,15.063 C72.105,13.632 74.778,12.273 77.592,9.709 C81.872,12.852 86.669,19.615 86.624,29.07 L72.837,29.07 C72.602,23.84 71.137,18.986 69.128,15.063 L69.128,15.063 Z M69.128,43.323 C72.105,44.683 74.778,46.04 77.592,48.505 C81.872,45.46 86.669,38.849 86.624,29.573 L72.837,29.573 C72.602,34.729 71.137,39.45 69.128,43.323 L69.128,43.323 Z" id="Fill-59" fill="#A91F25" sketch:type="MSShapeGroup"></path>
            <path d="M53.215,9.231 L53.023,9.231 L53.094,9.456 L52.668,9.608 L52.454,9.356 L52.268,9.407 L52.29,10.009 L53.424,10.009 L53.922,9.959 L54.276,10.211 L54.727,10.739 L56.333,11.192 L57.112,10.839 L57.563,10.338 L58.391,10.136 L58.841,9.483 L60.022,9.004 L60.448,8.627 L60.639,8.149 L60.639,7.898 L60.897,7.873 L60.897,7.623 L61.086,7.647 L61.086,7.395 L61.321,7.27 L61.441,6.818 L61.111,6.942 L61.301,6.691 L61.321,6.49 L61.135,6.441 L61.205,6.213 L61.321,5.836 C61.063,5.811 61.016,5.661 60.756,5.609 L60.542,5.284 L60.259,5.333 L60.33,4.856 L60.189,4.605 L60.022,4.655 L59.811,4.529 L59.951,4.252 L60.402,3.825 L59.83,4.101 L59.502,4.403 L59.078,4.15 L58.982,3.6 L58.51,3.6 L58.486,4.202 L58.061,4.504 L57.941,4.279 L57.776,4.378 L57.611,4.729 L57.377,4.856 L57.09,4.403 L56.807,4.529 L56.974,5.03 L56.903,5.41 L56.736,5.007 L56.381,4.403 L56.074,4.354 L55.979,4.605 L55.72,4.629 L55.623,4.881 L55.672,5.359 L55.459,5.083 L55.011,4.529 L54.773,4.605 L54.866,5.661 L54.655,5.836 C54.489,5.735 54.606,5.609 54.418,5.534 L54.206,5.735 L54.206,6.136 L54.062,6.088 L54.041,6.515 L53.899,6.136 L53.66,5.963 L53.851,5.712 L53.473,5.359 L53.806,5.485 C53.922,5.131 53.591,5.359 53.851,5.007 L53.66,4.881 L53.851,4.78 L53.78,4.655 L53.568,4.655 L53.542,4.328 L53.26,4.101 L53.117,4.101 L52.905,3.572 L52.692,3.649 L52.503,3.6 L52.29,3.624 L52.173,3.876 L52.29,4.076 L52.646,3.9 L52.857,4.202 L52.551,4.101 L52.386,4.202 L52.978,4.729 L52.905,5.157 L52.692,5.03 L52.646,4.755 L52.454,4.605 L52.386,4.78 L52.29,4.479 L51.96,4.202 L51.818,4.328 L51.937,4.504 L51.628,4.479 L51.557,4.629 L51.841,4.881 L51.441,4.881 L51.461,5.083 L51.913,5.257 L51.863,5.485 L51.7,5.359 L51.274,5.107 L51.202,5.333 L51.511,5.534 L51.392,5.634 L51.37,5.735 L51.036,5.485 L50.682,5.836 L50.872,5.987 L51.486,6.063 L52.29,5.661 L52.503,5.836 L53.023,5.836 L52.857,5.987 L53.023,6.088 L53.308,6.19 L52.813,6.49 L52.646,6.691 L52.978,6.867 L53.354,6.768 L53.308,7.119 L52.786,6.969 L52.526,7.119 L52.313,6.991 L51.747,7.219 L51.345,7.093 L51.086,7.219 L51.202,7.721 L51.511,7.721 L51.7,7.623 C52.077,7.772 52.268,7.748 52.668,7.598 C52.857,7.822 52.928,8.025 53.023,8.326 L53.188,8.351 L53.023,8.603 L53.094,8.878 L53.447,8.627 L53.215,8.904 L53.142,9.081 L53.215,9.231" id="Fill-60" fill="#A91F25" sketch:type="MSShapeGroup"></path>
            <path d="M0.648,28.14 L0.839,13.329 L5.969,13.254 L5.261,26.555 L7.907,13.23 L13.746,13.23 L13.086,26.077 L16.325,13.23 L20.724,13.254 L16.938,28.14 L9.231,28.14 L9.301,24.87 L8.568,28.14 L0.648,28.14" id="Fill-61" fill="#A91F25" sketch:type="MSShapeGroup"></path>
            <path d="M18.217,28.14 L19.188,21.879 C19.659,19.464 21.054,18.182 22.495,17.931 C24.104,17.68 25.877,17.805 27.724,18.006 C29.875,18.711 29.757,20.394 29.662,22.129 L28.716,28.14 L24.01,28.14 L25.026,21.853 C25.074,21.477 24.813,21.15 24.412,21.15 C24.01,21.15 23.725,21.477 23.608,21.828 L22.591,28.14 L18.217,28.14" id="Fill-62" fill="#A91F25" sketch:type="MSShapeGroup"></path>
            <path d="M29.612,28.14 L31.151,17.981 L35.645,17.931 L35.478,19.011 C36.472,17.805 40.278,16.471 40.516,20.445 L39.709,25.926 L36.045,25.977 L36.566,22.179 C36.566,21.375 35.406,20.872 35.056,22.129 L34.177,28.14 L29.612,28.14" id="Fill-63" fill="#A91F25" sketch:type="MSShapeGroup"></path>
            <path d="M39.925,28.14 L42.265,13.23 L47.276,13.23 L44.865,28.14 L39.925,28.14" id="Fill-64" fill="#A91F25" sketch:type="MSShapeGroup"></path>
            <path d="M45.551,28.14 L46.615,21.477 C47.349,16.975 51.677,16.27 52.882,18.861 L53.687,13.254 L58.012,13.23 L55.955,28.14 L51.319,28.14 L52.219,22.078 C52.313,21.677 52.03,21.4 51.628,21.4 C51.202,21.4 50.872,21.677 50.801,22.078 L49.877,28.14 L45.551,28.14" id="Fill-65" fill="#A91F25" sketch:type="MSShapeGroup"></path>
            <path d="M59.313,28.14 L61.135,16.221 C61.584,14.839 62.86,13.078 65.083,12.525 C66.596,12.4 68.417,12.223 70.263,12.576 C72.178,12.901 73.173,13.404 73.29,16.221 L72.58,21.249 L67.471,21.249 L68.038,17.73 C68.345,16.245 66.551,16.069 66.17,17.604 L64.564,28.14 L59.313,28.14" id="Fill-66" fill="#A91F25" sketch:type="MSShapeGroup"></path>
            <path d="M66.36,28.14 L66.431,27.611 L71.584,27.611 L71.492,28.14 L66.36,28.14" id="Fill-67" fill="#A91F25" sketch:type="MSShapeGroup"></path>
            <path d="M72.059,28.14 L74.351,13.23 L79.294,13.23 L77.025,28.14 L72.059,28.14" id="Fill-68" fill="#A91F25" sketch:type="MSShapeGroup"></path>
            <path d="M78.253,28.114 C80.214,25.926 83.858,26.102 84.095,24.846 L84.496,22.229 C84.496,20.947 83.221,20.822 82.911,22.078 L82.652,24.568 L78.134,24.493 C78.253,23.461 78.349,22.431 78.512,21.35 C78.868,19.112 80.877,18.082 82.416,17.805 C83.858,17.503 85.678,17.503 87.192,18.056 C89.745,18.734 89.271,20.872 89.178,21.802 L88.16,28.14 L78.253,28.114" id="Fill-69" fill="#A91F25" sketch:type="MSShapeGroup"></path>
            <path d="M90.857,28.14 C90.169,27.737 89.178,27.108 89.224,25.448 L89.816,21.124 C90.146,18.935 92.111,17.931 93.647,17.88 C95.253,17.73 97.217,17.805 98.612,18.231 C99.395,18.585 100.151,19.515 100.101,21.074 L99.559,24.694 L95.16,24.493 L95.421,22.431 C95.658,20.344 94.072,20.622 93.978,22.38 L93.672,24.317 C93.504,25.825 96.746,26.43 98.138,28.14 L90.857,28.14" id="Fill-70" fill="#A91F25" sketch:type="MSShapeGroup"></path>
            <path d="M101.686,28.14 C101,27.737 99.985,27.108 100.079,25.448 L100.67,21.124 C100.953,18.935 102.94,17.931 104.453,17.88 C106.063,17.73 108.07,17.805 109.418,18.231 C110.223,18.585 110.956,19.515 110.929,21.074 L110.411,24.694 L105.944,24.493 L106.249,22.431 C106.488,20.344 104.855,20.622 104.736,22.38 L104.476,24.317 C104.36,25.825 107.573,26.43 108.946,28.14 L101.686,28.14" id="Fill-71" fill="#A91F25" sketch:type="MSShapeGroup"></path>
            <path d="M0.602,31.587 L0.648,28.14 L8.568,28.14 L7.791,31.587 L0.602,31.587" id="Fill-72" fill="#A91F25" sketch:type="MSShapeGroup"></path>
            <path d="M9.16,31.587 L9.231,28.14 L16.938,28.14 L16.064,31.587 L9.16,31.587" id="Fill-73" fill="#A91F25" sketch:type="MSShapeGroup"></path>
            <path d="M17.695,31.587 L18.217,28.14 L22.591,28.14 L22.047,31.587 L17.695,31.587" id="Fill-74" fill="#A91F25" sketch:type="MSShapeGroup"></path>
            <path d="M23.465,31.587 L24.01,28.14 L28.716,28.14 L28.195,31.587 L23.465,31.587" id="Fill-75" fill="#A91F25" sketch:type="MSShapeGroup"></path>
            <path d="M29.094,31.587 L29.612,28.14 L34.177,28.14 L33.657,31.587 L29.094,31.587" id="Fill-76" fill="#A91F25" sketch:type="MSShapeGroup"></path>
            <path d="M39.403,31.587 L39.925,28.14 L44.865,28.14 L44.322,31.587 L39.403,31.587" id="Fill-77" fill="#A91F25" sketch:type="MSShapeGroup"></path>
            <path d="M45.008,31.587 L45.551,28.14 L49.877,28.14 L49.357,31.587 L45.008,31.587" id="Fill-78" fill="#A91F25" sketch:type="MSShapeGroup"></path>
            <path d="M50.801,31.587 L51.319,28.14 L55.955,28.14 L55.482,31.587 L50.801,31.587" id="Fill-79" fill="#A91F25" sketch:type="MSShapeGroup"></path>
            <path d="M58.793,31.587 L59.313,28.14 L64.564,28.14 L64.043,31.587 L58.793,31.587" id="Fill-80" fill="#A91F25" sketch:type="MSShapeGroup"></path>
            <path d="M65.838,31.587 L66.36,28.14 L71.492,28.14 L70.948,31.587 L65.838,31.587" id="Fill-81" fill="#A91F25" sketch:type="MSShapeGroup"></path>
            <path d="M71.538,31.587 L72.059,28.14 L77.025,28.14 L76.503,31.587 L71.538,31.587" id="Fill-82" fill="#A91F25" sketch:type="MSShapeGroup"></path>
            <path d="M76.954,31.587 L77.069,30.757 C77.238,29.623 77.663,28.768 78.253,28.114 L88.16,28.14 L87.595,31.587 L83.005,31.587 L83.336,28.969 C82.911,29.448 81.896,29.497 81.589,30.228 L81.421,31.587 L76.954,31.587" id="Fill-83" fill="#A91F25" sketch:type="MSShapeGroup"></path>
            <path d="M88.256,31.587 L88.349,30.931 L92.678,30.931 L92.584,31.587 L88.256,31.587" id="Fill-84" fill="#A91F25" sketch:type="MSShapeGroup"></path>
            <path d="M93.978,31.587 L94.072,30.757 C94.237,29.623 91.969,29.096 91.044,28.239 C90.998,28.215 90.928,28.165 90.857,28.14 L98.138,28.14 C98.566,28.692 98.828,29.347 98.731,30.179 L98.542,31.587 L93.978,31.587" id="Fill-85" fill="#A91F25" sketch:type="MSShapeGroup"></path>
            <path d="M99.062,31.587 L99.156,30.931 L103.485,30.931 L103.366,31.587 L99.062,31.587" id="Fill-86" fill="#A91F25" sketch:type="MSShapeGroup"></path>
            <path d="M104.736,31.587 L104.83,30.757 C105.043,29.623 102.797,29.096 101.852,28.239 C101.804,28.215 101.733,28.165 101.686,28.14 L108.946,28.14 C109.395,28.692 109.655,29.347 109.538,30.179 L109.347,31.587 L104.736,31.587" id="Fill-87" fill="#A91F25" sketch:type="MSShapeGroup"></path>
            <path d="M0.602,31.587 L0.509,38.372 L6.23,38.423 L7.791,31.587 L0.602,31.587" id="Fill-88" fill="#A91F25" sketch:type="MSShapeGroup"></path>
            <path d="M9.16,31.587 L9.02,38.372 L14.317,38.423 L16.064,31.587 L9.16,31.587" id="Fill-89" fill="#A91F25" sketch:type="MSShapeGroup"></path>
            <path d="M17.695,31.587 L17.249,34.552 C17.058,36.636 17.556,37.995 19.991,38.546 C21.361,38.626 22.78,38.626 24.178,38.423 C25.784,38.067 27.084,37.065 27.628,35.206 L28.195,31.587 L23.465,31.587 L23.016,34.376 C22.945,34.806 22.591,35.083 22.213,35.083 C21.764,35.083 21.503,34.806 21.598,34.376 L22.047,31.587 L17.695,31.587" id="Fill-90" fill="#A91F25" sketch:type="MSShapeGroup"></path>
            <path d="M29.094,31.587 L28.078,38.372 L32.664,38.372 L33.657,31.587 L29.094,31.587" id="Fill-91" fill="#A91F25" sketch:type="MSShapeGroup"></path>
            <path d="M39.403,31.587 L38.339,38.349 L43.235,38.349 L44.322,31.587 L39.403,31.587" id="Fill-92" fill="#A91F25" sketch:type="MSShapeGroup"></path>
            <path d="M45.008,31.587 L44.393,35.458 C44.156,39.45 48.223,39.2 49.927,37.415 L50.327,38.372 L54.537,38.349 L55.482,31.587 L50.801,31.587 L50.447,33.976 C50.4,34.376 50.044,34.63 49.618,34.63 C49.216,34.63 48.932,34.351 49.003,33.976 L49.357,31.587 L45.008,31.587" id="Fill-93" fill="#A91F25" sketch:type="MSShapeGroup"></path>
            <path d="M58.793,31.587 L58.391,34.202 C58.155,36.337 59.977,37.743 61.111,37.995 C63.428,38.372 65.46,38.321 67.495,38.067 C68.748,37.669 70.192,36.991 70.499,34.503 L70.948,31.587 L65.838,31.587 L65.651,32.892 C65.651,34.704 63.592,34.503 63.829,32.968 L64.043,31.587 L58.793,31.587" id="Fill-94" fill="#A91F25" sketch:type="MSShapeGroup"></path>
            <path d="M71.538,31.587 L70.499,38.321 L75.463,38.321 L76.503,31.587 L71.538,31.587" id="Fill-95" fill="#A91F25" sketch:type="MSShapeGroup"></path>
            <path d="M76.954,31.587 L76.48,34.979 C76.245,37.995 77.637,38.046 78.631,38.349 C80.169,38.349 80.877,38.067 81.657,37.241 C81.657,37.54 82.06,38.067 82.06,38.372 L86.506,38.372 L87.595,31.587 L83.005,31.587 L82.771,33.497 C82.605,34.604 81.115,34.351 81.185,33.37 L81.421,31.587 L76.954,31.587" id="Fill-96" fill="#A91F25" sketch:type="MSShapeGroup"></path>
            <path d="M88.256,31.587 L87.57,36.489 C87.57,37.091 88.634,38.196 89.864,38.247 C91.26,38.597 92.937,38.546 94.806,38.321 C97.147,37.919 97.878,36.991 98.117,34.806 L98.542,31.587 L93.978,31.587 L93.672,33.976 C93.315,35.358 92.157,35.358 92.205,34.101 L92.584,31.587 L88.256,31.587" id="Fill-97" fill="#A91F25" sketch:type="MSShapeGroup"></path>
            <path d="M99.062,31.587 L98.424,36.489 C98.424,37.091 99.487,38.196 100.67,38.247 C102.017,38.597 103.766,38.546 105.637,38.321 C107.952,37.919 108.71,36.991 108.901,34.806 L109.347,31.587 L104.736,31.587 L104.476,33.976 C104.121,35.358 102.963,35.358 102.963,34.101 L103.366,31.587 L99.062,31.587" id="Fill-98" fill="#A91F25" sketch:type="MSShapeGroup"></path>
            <path d="M20.937,48.806 C23.205,45.962 25.478,43.097 27.745,40.208 L31.459,40.208 C29.427,43.097 27.368,45.962 25.311,48.806 L20.937,48.806" id="Fill-99" fill="#A91F25" sketch:type="MSShapeGroup"></path>
            <path d="M27.487,48.806 C28.881,46.741 30.251,44.683 31.648,42.671 C32.996,41.866 34.343,41.06 35.716,40.208 L39.829,40.208 C40.207,41.06 40.634,41.866 41.058,42.671 C40.398,44.054 39.735,45.435 39.049,46.817 L35.101,46.817 C35.716,45.685 36.353,44.554 36.99,43.423 L35.126,43.423 L31.908,48.806 L27.487,48.806" id="Fill-100" fill="#A91F25" sketch:type="MSShapeGroup"></path>
            <path d="M39.947,48.806 L43.754,40.208 L50.563,40.208 C50.28,41.284 49.947,42.341 49.618,43.423 L46.263,43.423 L45.008,46.792 L48.034,46.792 L47.394,48.806 L39.947,48.806" id="Fill-101" fill="#A91F25" sketch:type="MSShapeGroup"></path>
            <path d="M49.737,48.806 C50.492,45.937 51.251,43.048 52.03,40.208 L55.695,40.208 C55.177,43.048 54.631,45.937 54.112,48.806 L49.737,48.806" id="Fill-102" fill="#A91F25" sketch:type="MSShapeGroup"></path>
            <path d="M58.887,48.806 L60.897,40.208 L66.17,40.208 L68.323,48.806 L64.254,48.806 L63.713,43.976 L63.355,43.976 L62.789,48.806 L58.887,48.806" id="Fill-103" fill="#A91F25" sketch:type="MSShapeGroup"></path>
            <path d="M70.38,48.806 L69.316,40.208 L72.414,40.208 L76.929,48.478 L74.896,40.208 L78.396,40.208 L81.164,48.806 L70.38,48.806" id="Fill-104" fill="#A91F25" sketch:type="MSShapeGroup"></path>
            <path d="M83.336,48.806 L80.214,40.208 L86.696,40.208 L90.548,42.671 L94.002,48.806 L89.534,48.806 L86.957,43.423 L85.322,43.423 L87.737,48.806 L83.336,48.806" id="Fill-105" fill="#A91F25" sketch:type="MSShapeGroup"></path>
            <path d="M20.937,48.806 C18.668,51.597 16.42,54.485 14.127,57.325 L19.211,57.325 C21.268,54.485 23.302,51.597 25.311,48.806 L20.937,48.806" id="Fill-106" fill="#A91F25" sketch:type="MSShapeGroup"></path>
            <path d="M27.487,48.806 C26.115,50.841 24.72,52.878 23.302,54.915 C23.962,55.716 24.603,56.497 25.311,57.325 L30.701,57.325 C32.216,56.497 33.729,55.716 35.171,54.915 C35.597,54.108 35.975,53.304 36.353,52.476 C36.754,51.694 37.156,50.915 37.536,50.064 L33.255,50.064 C32.452,51.444 31.719,52.8 30.987,54.185 L28.692,54.185 L31.908,48.806 L27.487,48.806" id="Fill-107" fill="#A91F25" sketch:type="MSShapeGroup"></path>
            <path d="M39.947,48.806 L36.19,57.325 L45.718,57.325 L46.664,54.185 L42.288,54.185 L43.849,49.911 L47.041,49.911 L47.394,48.806 L39.947,48.806" id="Fill-108" fill="#A91F25" sketch:type="MSShapeGroup"></path>
            <path d="M49.737,48.806 C48.979,51.667 48.248,54.513 47.489,57.325 L57.112,57.325 C57.234,56.298 57.35,55.241 57.445,54.185 L53.142,54.185 C53.447,52.398 53.78,50.589 54.112,48.806 L49.737,48.806" id="Fill-109" fill="#A91F25" sketch:type="MSShapeGroup"></path>
            <path d="M58.887,48.806 L57.377,55.188 L57.112,57.325 L61.654,57.325 C61.844,56.298 62.032,55.241 62.195,54.185 L64.941,54.185 C65.106,55.241 65.247,56.298 65.486,57.325 L70.472,57.325 L68.323,48.806 L64.254,48.806 L64.516,51.067 L62.529,51.067 L62.789,48.806 L58.887,48.806" id="Fill-110" fill="#A91F25" sketch:type="MSShapeGroup"></path>
            <path d="M70.38,48.806 L71.421,57.325 L76.245,57.325 L74.541,49.005 L79.672,57.325 L83.905,57.325 L81.164,48.806 L70.38,48.806" id="Fill-111" fill="#A91F25" sketch:type="MSShapeGroup"></path>
            <path d="M83.336,48.806 L86.411,57.325 L95.514,57.325 L97.43,54.915 L94.002,48.806 L89.534,48.806 L92.134,54.185 L90.125,54.185 L87.737,48.806 L83.336,48.806" id="Fill-112" fill="#A91F25" sketch:type="MSShapeGroup"></path>
        </g>
    </g>
</svg>